<?xml version="1.0" encoding="UTF-8" standalone="no"?>
<svg
   width="530.16748"
   height="601.50751"
   viewBox="-702 0 530.16748 601.50751"
   version="1.2"
   id="svg31"
   sodipodi:docname="Wevsite quiz - page 6.svg"
   inkscape:version="1.3.2 (1:1.3.2+202311252150+091e20ef0f)"
   xmlns:inkscape="http://www.inkscape.org/namespaces/inkscape"
   xmlns:sodipodi="http://sodipodi.sourceforge.net/DTD/sodipodi-0.dtd"
   xmlns="http://www.w3.org/2000/svg"
   xmlns:svg="http://www.w3.org/2000/svg"
   xmlns:rdf="http://www.w3.org/1999/02/22-rdf-syntax-ns#"
   xmlns:cc="http://creativecommons.org/ns#"
   xmlns:dc="http://purl.org/dc/elements/1.1/"><defs
   id="defs31" />
<sodipodi:namedview
   id="namedview31"
   pagecolor="#ffffff"
   bordercolor="#666666"
   borderopacity="1.0"
   inkscape:showpageshadow="2"
   inkscape:pageopacity="0.0"
   inkscape:pagecheckerboard="0"
   inkscape:deskcolor="#d1d1d1"
   inkscape:zoom="0.64476496"
   inkscape:cx="431.94035"
   inkscape:cy="445.89892"
   inkscape:window-width="2256"
   inkscape:window-height="1431"
   inkscape:window-x="1319"
   inkscape:window-y="1080"
   inkscape:window-maximized="1"
   inkscape:current-layer="svg31" />
<title
   id="title1">Wevsite quiz</title>

\n<g
   id="g1"
   transform="translate(-270.303,-489.85247)">
  <path
     fill="none"
     stroke="#000000"
     stroke-width="6"
     stroke-linecap="round"
     stroke-linejoin="round"
     d="m -164.183,584.269 -0.26,-0.628 0.504,-0.91 0.152,0.244 -0.076,-0.539 -0.404,-0.006 -1.054,-1.063 -2.171,-0.694 -1.887,-0.405 -1.295,0.098 -3.551,-0.985 -2.317,-0.069 -1.275,-0.537 -5.084,0.435 -3.239,-0.622 -4.116,0.629 -1.485,0.496 -0.936,0.821 -3.463,0.731 -9.622,3.863 -6.512,1.899 -1.236,0.112 -2.772,1.613 -1.011,1.232 -0.424,-0.036 -2.181,1.523 -1.957,1.976 -1.54,2.22 -3.345,5.967 -3.083,6.501 -1.087,3.876 -0.902,5.432 0.177,6.263 1.085,8.933 1.089,4.244 0.638,1.006 2.263,6.452 0.99,2.026 0.448,0.287 2.709,5.932 2.812,4.186 2.436,2.209 2.912,1.64 4.375,1.586 8.401,0.688 4.571,0.883 9.044,-0.066 6.815,-0.78 8.678,-1.86 11.725,-3.796 6.812,-3.126 9.917,-6.361 3.142,-2.702 5.663,-5.974 2.302,-3.247 1.656,-4.883 1.097,-6.75 0.051,-5.096 -0.621,-7.656 -1.737,-10.281 -2.703,-10.215 -1.7,-3.845 -3.014,-5.53 -2.327,-5.446 -1.47,-2.645 -2.165,-2.699 -2.188,-1.079 -2.267,0.022 -1.572,0.464 -5.027,3.347 -4.19,4.924 -2.736,2.619"
     id="path1" />
</g>
<g
   id="g2"
   transform="translate(-270.303,-489.85247)">
  <path
     fill="none"
     stroke="#000000"
     stroke-width="6"
     stroke-linecap="round"
     stroke-linejoin="round"
     d="m -229.045,600.965 -0.926,-0.147 -0.02,-1.055 6.962,-14.74 2.043,-3.376 5.91,-7.964 4.997,-5.568 4.785,-4.739 4.757,-5.628 5.098,-7.57 8.998,-11.812 4.077,-6.107 8.398,-9.145 7.756,-11.779 3.244,-5.77 5.268,-7.373 3.146,-5.34 0.101,0.386 0.14,-0.295 -0.218,0.748 0.548,0.004 0.208,-0.415 1.817,1.233 1.537,2.088 0.698,2.161 2.109,13.114 2.749,5.658 3.02,7.933 1.692,6.628 1.525,3.78 1.486,6.932 2.929,7.307 2.287,6.936 1.06,5.283 1.27,4.169 1.788,12.342 0.856,11.326 0.596,29.336 0.757,4.243 0.413,1.142 0.055,-1.148"
     id="path2" />
</g>
<g
   id="g3"
   transform="translate(-270.303,-489.85247)">
  <path
     fill="none"
     stroke="#000000"
     stroke-width="6"
     stroke-linecap="round"
     stroke-linejoin="round"
     d="m -188.872,670.029 -0.923,15.543 -0.345,16.475 3.98,39.639 1.234,8.082 2.81,33.021 0.287,7.489 1.795,14.363 0.364,9.445 -0.268,5.552 1.05,5.586 1.582,5.988 0.232,3.514 -0.235,0.613 1.155,7.574 -0.042,2.318 0.469,1.351 0.328,2.963 0.014,-0.473 0.17,0.334 -0.057,0.403 -0.025,-0.232 -0.242,0.124 0.325,-0.315 0.481,3.379 0.338,0.474 -0.155,0.703 -0.19,-0.683 -0.13,0.472 -0.228,-0.117 -0.319,2.304 1.119,3.828 1.066,1.797 -0.632,2.329 0.52,2.501 1.446,4.003 -0.523,1.788 0.321,2.371 2.138,4.95 0.758,4.303 1.79,4.459 0.686,4.602 0.099,4.804 0.803,4.331 -0.108,6.935 0.439,0.871 0.68,6.87 -0.046,6.176 1.21,9.493 1.452,8.202 0.377,0.413 0.805,10.999 0.612,3.226 0.292,5.981 1.126,5.641 1.067,3.078 -0.234,0.32 0.509,1.076 0.174,1.599 0.525,0.65 0.607,2.031 0.647,6.111 -0.146,2.863 0.843,5.223 0.287,5.762 -0.732,9.556 -1.588,7.16 -0.112,2.93 0.108,1 0.262,0.43 0.288,-0.05 0.592,2.11 0.785,1.6 0.326,-0.12 1.66,4.21 1.617,6.07 4.336,20.67 0.676,15.49 -0.392,1.73 -0.969,1.45 -0.831,0.45 -0.716,-0.45"
     id="path3" />
</g>
<g
   id="g4"
   transform="translate(-270.303,-489.85247)">
  <path
     fill="none"
     stroke="#000000"
     stroke-width="6"
     stroke-linecap="round"
     stroke-linejoin="round"
     d="m -187.574,665.093 0.204,-2.753 0.724,-1.596 4.463,3.138 0.944,1.362 3.731,3.05 3.804,3.947 8.696,10.345 14.327,12.401 2.663,3.086 3.878,2.881 13.844,14.155 4.614,4.235 5.81,3.801 2.127,2.053 1.115,0.52 6.098,4.647 16.5547,17.268 7.9725,7.802 7.3283,5 4.241,2.502 2.234,1.957 3.1137,1.52 2.0482,1.464 2.3943,0.768 6.62,3.935 10.2696,6.915 5.5941,3.932 11.3859,9.232 11.7639,8.38 7.3276,5.704 4.54248,4.334 2.40173,1.323 5.74237,5.764 7.47022,8.972 5.0887,5.098 12.9711,11.426 4.9801,5.149 5.4899,3.948 2.4793,2.371 11.3298,13.012 7.7627,7.264 2.2017,2.792 2.9012,4.766 1.9093,2.233 1.0832,0.782 6.4295,8.113 0.9004,1.657 -0.5595,-0.718 -1.0301,0.269 -0.2176,0.372 -0.3805,-0.084 -0.4225,0.464 -1.1388,-0.67 -2.9697,1.429 -2.0851,0.12 -0.4234,0.679 -0.9882,-0.462 -0.3056,-0.515 -0.2104,0.361 -0.4792,-0.088 -1.1711,0.625 -0.7708,0.023 -0.5355,-0.638 -0.2033,0.329 -5.4338,0.871 -0.8589,0.436 -3.1076,-0.004 -1.6911,0.605 -1.0352,-0.278 -0.5159,0.541 -2.3379,1.134 -1.1143,1.042 -2.7766,1.117 -2.6873,1.664 -1.091,0.214 -4.3916,3.131 -5.3512,1.541 -6.8038,0.909 -1.4022,-0.167 -0.7439,0.415 -3.1357,0.606 -8.93922,2.915 -1.32184,0.122 -5.117675,2.955 -3.964725,1.349 -21.21764,3.9 -6.9618,2.154 -13.5898,2.679 -7.2501,2.042 -6.0324,1.278 -18.2313,2.848 -2.4745,0.735 -4.999,0.848 -30.4302,8.046 -2.586,1.099 -14.05,1.506 -11.002,0.193 -10.211,-0.499 -3.513,0.171 -9.146,1.723 -7.588,2.462 -5.811,1.086 -6.814,0.754 -4.422,-0.237 -3.037,0.418 -7.748,0.296 -9.37,-0.652 -8.223,0.081 -5.221,1.004 -9.51,3.328 -5.718,2.349 -6.777,1.862 -2.636,-0.022 -2.724,1.172 -8.03,2.125 -9.749,0.956 -11.967,-0.337 -7.539,-1.073 -16.692,-0.537 -2.9,0.664 -7.276,3.387 -8.799,1.112 -1.064,0.717 -1.108,0.256 -1.059,-0.425 -4.988,-0.27 -2.464,-0.586 -9.579,-1.014 -10.669,-0.45 -1.698,-0.475 -7.78,2.427 -5.924,2.627 -0.685,-0.084 -3.803,1.125 -4.231,0.138 -1.704,-0.297 -6.348,0.62 -8.057,-0.811 -2.565,-0.576 -2.318,0.66 -0.652,0.591 -1.024,0.132 -0.217,-0.32 -0.617,0.517 -1.037,-0.4 -0.482,-0.931 -1.539,-1.321 -0.55,-2.02 -0.537,-0.621 -0.427,-2.768 0.913,-3.338 1.21,-2.718 2.675,-4.457 0.396,-1.392 8.861,-12.012 3.778,-5.831 3.589,-4.364 1.613,-1.197 1.675,-2.368 9.331,-9.608 2.168,-2.895 8.298,-8.262 22.366,-24.421 7.213,-10.791 10.457,-14.111 14.479,-22.318 12.437,-17.419 8.388,-10.025 14.899,-19.06 8.949,-10.255 5.828,-7.462 2.253,-2.408 7.865,-12.485 2.247,-2.653 9.043,-12.617 7.807,-9.882 2.01,-3.228 1.043,-0.73 4.148,-4.968 5.988,-5.834 3.131,-3.611 4.141,-5.436 1.9,-1.862 1.847,-3.01 4.722,-5.895 5.87,-9.548 7.246,-15.467 2.348,-3.476 2.566,-3.096 3.869,-3.804 0.891,-1.399 3.06,-3.324 2.716,-3.774 2.96,-5.93 1.508,-2.367 3.787,-4.515"
     id="path4" />
</g>
<g
   id="g5"
   transform="translate(-270.303,-489.85247)">
  <path
     fill="none"
     stroke="#000000"
     stroke-width="6"
     stroke-linecap="round"
     stroke-linejoin="round"
     d="m -161.595,795.334 -0.809,0.776 -1.166,0.299 -2.278,1.992 -7.014,7.488 -1.923,1.353 -3.128,3.912 -6.351,6.239 -5.661,6.454 -10.711,14.519 -1.829,3.74 -0.859,1.119 -2.65,7.203 -0.255,-0.447 1.402,-1.066"
     id="path5" />
</g>
<g
   id="g6"
   transform="translate(-270.303,-489.85247)">
  <path
     fill="none"
     stroke="#000000"
     stroke-width="6"
     stroke-linecap="round"
     stroke-linejoin="round"
     d="m -147.616,814.441 -2.453,6.284 -3.674,6.596 -11.535,15.232 -5.092,8.224 -8.478,11.85 -11.931,12.703 -4.155,4.962 -2.113,3.705 -0.738,0.642 -1.32,3.129 0.932,-1.147"
     id="path6" />
</g>
<g
   id="g7"
   transform="translate(-270.303,-489.85247)">
  <path
     fill="none"
     stroke="#000000"
     stroke-width="6"
     stroke-linecap="round"
     stroke-linejoin="round"
     d="m -161.028,503.811 -3.132,0.966 -3.478,1.62 -1.517,-0.863 -1.385,0.271 -6.753,0.099 -3.1,-0.704 -3.377,-0.012 -7.126,1.367 -7.033,3.093 -5.238,3.403 -14.878,7.193 -7.326,4.308 -7.765,2.945 -5.157,2.411 -6.054,3.753 -9.225,7.702 -3.548,2.604 -3.015,1.74 -6.014,4.991 -19.416,15.004 -13.724,9.777 -7.189,6.347 -5.423,5.626 -6.234,8.769 -28.82,34.639 -10.26,9.309 -4.169,4.148 -3.553,4.134 -16.98,24.729 -2.048,3.524 -5.185,7.576 -2.334,2.95 -9.707,18.064 -1.336,3.52 -5.193,10.324 -3.246,7.668 -2.577,7.346 -2.568,9.721 -3.518,17.453 -1.828,12.064 -1.814,7.714 -2.007,10.748 -1.454,13.487 -0.216,14.769 -1.678,25.816 -0.071,16.929 0.956,19.417 -0.227,5.339 0.397,16.716 2.558,20.465 0.217,4.466 1.36,8.403 1.411,5.406 1.849,4.098 2.294,7.119 4.767,19.265 2.975,7.036 3.357,6.051 4.396,5.499 8.616,12.137 3.24,5.5 7.656,10.14 4.038,4.02 5.753,4.14 6.431,3.04 6.307,2.31 11.852,6.33 6.7,2.92 10.899,6.05 2.006,1.43 6.159,2.92 7.369,2.72 6.251,1.51 6.604,2.59 7.147,1.64 5.479,0.75 5.897,1.82 2.078,1.14 4.038,0.83 10.495,3.07 12.252,2.8 2.237,0.83 6.274,0.99 12.086,-0.04 2.472,0.34 1.1,-0.4 3.382,-0.43 2.192,0.1 5.268,-0.81 1.812,-0.7 6.604,0.71 6.551,1.25 3.52,1.38 4.821,1.25 2.74,1.04 5.284,1.28 1.441,0.84 3.256,0.16 1.299,-0.38 0.59,0.34 8.042,1.31 1.526,0.85 0.702,-0.2 3.981,0.3 4.907,1.5 7.355,2.73 1.544,0.83 7.081,1.3 2.06,0.05 1.502,-0.69 5.307,-0.29 9,-3.58 1.633,-1.16 22.193,-3 8.3549,-2.17 9.4839,-3.08 11.4031,-6.8 3.6671,-1.77 4.583,-2.85 2.1589,-0.78 2.377,-1.7 5.1955,-2.79 27.1177,-9.31 6.5678,-2.65 7.5375,-3.79 8.76768,-4.94 18.30812,-11.3 7.5298,-3.46 8.7408,-3.2 2.0397,-1.34 6.5834,-2.81 5.9424,-4.09 2.348,-2.04 6.536,-7.05 6.2947,-5.891 7.9005,-8.441 9.2982,-7.533 3.1174,-4.184 3.7813,-7.761 4.2226,-14.965 4.7703,-12.082 3.1648,-9.838 0.9952,-4.311 0.4155,-3.956 0.2197,-15.427 1.406,-13.494 -1.3115,-22.361 0.1606,-6.768 0.7004,-9.28 -0.0502,-6.023 -0.8293,-8.825 -2.8087,-14.155 -1.3292,-8.438 -0.7795,-13.013 0.1072,-19.533 -0.7383,-5.67 -2.2292,-7.92 -3.234,-9.4 -6.5937,-21.377 -5.2922,-22.198 -3.1207,-7.915 -2.0002,-3.095 -3.7652,-4.408 -4.4659,-4.223 -6.5866,-7.591 -3.775,-3.867 -5.0081,-6.76 -5.2014,-9.114 -6.138,-15.737 -2.7309,-4.948 -3.3384,-3.237 -7.5485,-5.596 -6.1295,-6.126 -15.24615,-18.937 -6.69275,-8.93 -5.2374,-9.2 -3.2725,-7.994 -2.1454,-6.203 -2.0418,-4.339 -1.1432,-1.578 -10.7222,-10.915 -5.0492,-6.754 -5.8035,-8.767 -6.3811,-10.816 -4.008,-9.03 -3.6952,-10.138 -1.5937,-2.09 -1.0467,-0.844 -2.7965,-1.112 -18.9611,-4.919 -4.7156,-1.872 -5.8318,-2.958 -7.3257,-5.939 -5.453,-3.933 -5.557,-2.849 -1.985,-0.153 -2.109,-0.754 -5.695,-1.164 -8.026,-0.202 -4.683,-0.619 -6.344,-0.278 -5.29,0.067 -8.04,1.244 -6.737,1.923 -6.442,2.547 -6.631,4.03 -7.986,6.34 -2.564,2.768 -3.054,4.466"
     id="path7" />
</g>
<metadata
   id="metadata31">
  <rdf:RDF>
    <cc:Work
       rdf:about="">
      <dc:title>Wevsite quiz</dc:title>
    </cc:Work>
  </rdf:RDF>
</metadata>
</svg>
