<?xml version="1.0" encoding="UTF-8" standalone="no"?>
<svg
   width="834.401"
   height="1216.7573"
   viewBox="-702 0 834.401 1216.7573"
   version="1.2"
   id="svg11"
   sodipodi:docname="Wevsite quiz - page 7.svg"
   inkscape:version="1.3.2 (1:1.3.2+202311252150+091e20ef0f)"
   xmlns:inkscape="http://www.inkscape.org/namespaces/inkscape"
   xmlns:sodipodi="http://sodipodi.sourceforge.net/DTD/sodipodi-0.dtd"
   xmlns="http://www.w3.org/2000/svg"
   xmlns:svg="http://www.w3.org/2000/svg"
   xmlns:rdf="http://www.w3.org/1999/02/22-rdf-syntax-ns#"
   xmlns:cc="http://creativecommons.org/ns#"
   xmlns:dc="http://purl.org/dc/elements/1.1/"><defs
   id="defs11" />
<sodipodi:namedview
   id="namedview11"
   pagecolor="#ffffff"
   bordercolor="#666666"
   borderopacity="1.0"
   inkscape:showpageshadow="2"
   inkscape:pageopacity="0.0"
   inkscape:pagecheckerboard="0"
   inkscape:deskcolor="#d1d1d1"
   inkscape:zoom="0.64476496"
   inkscape:cx="529.65037"
   inkscape:cy="678.54184"
   inkscape:window-width="2256"
   inkscape:window-height="1431"
   inkscape:window-x="1319"
   inkscape:window-y="1080"
   inkscape:window-maximized="1"
   inkscape:current-layer="svg11" />
<title
   id="title1">Wevsite quiz</title>
\n<g
   id="g1"
   transform="translate(-172.92,-257.73263)">
  <path
     fill="none"
     stroke="#000000"
     stroke-width="6"
     stroke-linecap="round"
     stroke-linejoin="round"
     d="m -461.279,1252.7 1.722,3.39 14.09,31.72 9.957,20.13 8.038,14.91 2.577,5.68 4.641,8.71 5.363,8.95 4.638,6.67 6.436,8.26 6.434,7.21 2.484,2.32 8.661,10.73 17.388,17.84 5.272,5.14 8.094,7.07 2.807,1.45 2.922,2.61 7.991,5.51 17.804,8.43 22.987,8.98 18.264,6.33 3.801,1.21 3.613,0.75 7.695,3.41 3.932,1.27 1.897,1.04 11.198,3.98 23.673,5.53 10.263,1.95 4.11,0.36 4.179,1.03 22.558,4.15 8.096,0.71 4.47,-0.29 14.858,1.4 11.019,0.25 12.991,-0.21 4.12,-0.48 6.004,-0.07 23.872,-2.04 11.1615,-0.61 36.6302,-5.72 4.2667,-0.36 14.9985,-3.8 8.9488,-2.6 14.91454,-5.4 4.37921,-1.22 4.596744,-2.34 13.071106,-5.56 10.2963,-5.05 6.2521,-2.65 32.1859,-16.43 19.4055,-12.49 7.4474,-5.43 7.0951,-5.74 12.4384,-12.62 6.052,-4.92 9.357,-8.26 5.299,-5.63 26.54,-26.36 5.544,-7.25 14.466,-17.26 7.583,-10.09 12.23,-17.92 13.446,-21.72 13.459,-25.04 6.76,-11.78 12.302,-30.49 8.333,-23.16 2.635,-8.59 8.219,-36.24 9.673,-45.83 1.634,-5.56 3.994,-18.16 4,-15.45 5.116,-14.26 2.237,-8.41 3.227,-16.87 2.631,-18.116 1.196,-12.036 1.713,-12.458 1.672,-23.487 1.316,-10.912 1.055,-12.969 2.904,-19.177 -0.571,-27.78 -2.182,-7.795 -1.547,-3.274 0.035,0.361 0.227,-0.04 -0.304,-0.175 -0.077,0.467 -0.198,-0.218 0.205,0.45 -0.106,-0.512 -0.311,0.494 -1.201,-0.252 -0.643,-0.513 -1.651,0.65 -1.202,-0.166 -2.61,0.468 -0.664,-0.193 -2.975,0.882 -6.711,1.187 -8.189,-0.166 -2.391,0.13 -1.228,0.579 -4.314,-0.764 -0.714,0.278 -7.752,0.62 -1.59,0.535 -5.319,-0.083 -14.562,1.343 -7.663,0.448 -1.519,-0.255 -6.035,1.112 -8.4,0.983 -1.28,-0.159 -4.02,0.758 -5.522,-0.13 -4.15,-0.934 -0.667,-0.495 -1.324,-0.273 -0.325,0.332 -0.812,-0.354 -0.857,0.195 -1.438,-0.879 -1.135,-0.073 -0.283,0.324 -0.872,-0.515 0.051,0.319 0.091,-0.55 -0.078,0.786 0.018,-0.542 -0.096,0.467 -0.165,-0.253 0.154,-0.182 0.13,0.218 -0.091,0.309 -0.217,-0.585 0.268,0.345 -0.185,-0.153 0.078,0.4 -0.131,-0.207 0.237,0.015 -0.016,1.766 -1.058,5.553 -2.444,7.548 -0.939,6.704 -0.13,5.226 0.298,6.88 0.679,6.573 0.085,6.21 -0.504,6.43 -1.551,8.853 -2.646,8.16 -2.24,6.199 -1.157,2.223 -1.324,4.275 -8.817,18.767 -3.192,5.34 -1.06,2.41"
     id="path1" />
</g>
<g
   id="g2"
   transform="translate(-172.92,-257.73263)">
  <path
     fill="none"
     stroke="#000000"
     stroke-width="6"
     stroke-linecap="round"
     stroke-linejoin="round"
     d="m 165.197,963.505 -1.985,3.56 -0.976,0.707 -0.433,-0.098 -1.754,2.119 -2.073,7.983 -1.75,4.16 -1.562,0.779 -0.481,1.267 -2.287,3.327 -3.173,3 -1.421,0.909 -1.453,0.479 -2.769,2.168 -2.495,0.241 -2.624,-1.688 -0.556,-0.794 -1.976,-0.306 -0.754,-0.468 -3.49,-3.294 -2.376,-5.358 -0.818,-3.306 -0.344,-3.205 0.84,-17.605 -0.336,-11.53 -1.14,-8.713 -0.43,-7.278 0.016,-18.996 0.148,-3.5 1.608,-11.311 0.493,-8.26 -0.792,-10.959 -0.162,-7.81 0.755,-28.115 0.671,-9.549 2.482,-18.981 -0.495,-6.75 -1.519,-6.559 -0.282,-7.595 0.403,-6.088 2.813,-18.834 -0.261,-3.904 -1.697,-6.483 -0.704,-5.486 -0.238,-8.288 1.239,-16.695 -0.521,-5.721 -0.828,-5.148 -1.217,-4.806 -0.209,-2.892 0.613,-13.162 -0.788,-14.683 0.508,-5.839 2.233,-12.184 -0.782,-13.091 0.257,-11.266 -0.571,-5.398 -3.882,-14.598 -1.528,-8.209 -0.67,-6.263 0.08,-3.855 0.798,-5.854 -0.409,-5.596 0.898,-11.503 -1.71,-14.386 -0.105,-17.972 -0.968,-6.878 -0.36,-9.051 -1.198,-11.585 0.626,-9.453 -0.662,-9.638 1.77,-12.291 0.627,-8.269 0.793,-4.682 2.936,-11.456 2.235,-12.164 -0.332,-8.208 -0.363,-2.366 -2.596,-3.942 -1.456,-1.153 -0.583,0.019 -2.693,-1.727 -1.922,-0.024 -1.484,-0.571 -0.541,-0.536 -4.05,-0.296 -11.077,0.408 -5.3696,0.873 -2.6164,-0.138 -0.9686,-0.505 -3.287,0.737 -1.8368,-0.206 -4.0759,0.528 -1.0536,-0.186 -13.3618,3.54 -7.8373,1.119 -1.7106,-1.1 -0.4267,-0.171 -0.3489,0.259 -1.2379,-0.592 0.1458,0.297 -0.1923,-0.109 -0.113,0.583 -1.1524,1.234 -2.2537,3.456 -5.9008,7.333 -0.8941,0.341 -0.859,1.675 -3.3182,12.192 -0.7284,4.466 -2.5512,8.45 -2.7406,14.784 -0.4492,17.897 0.1666,9.492 -0.6694,8.779 -0.1383,6.954 0.3906,10.387 -0.1356,5.85 0.8107,9.436 -0.7638,11.648 0.2839,8.163 -0.5603,3.081 -3.3686,11.444 -1.1396,10.859 -2.1192,10.065 -0.4064,3.257 -1.044,20.414 -3.1579,24.907 -2.3585,14.987 -0.0243,1.691"
     id="path2" />
</g>
<g
   id="g3"
   transform="translate(-172.92,-257.73263)">
  <path
     fill="none"
     stroke="#000000"
     stroke-width="6"
     stroke-linecap="round"
     stroke-linejoin="round"
     d="m 9.59098,671.08 -1.27555,-5.035 -2.67871,-5.091 -1.10541,-3.059 -4.5985707,-14.02 -2.0557893,-7.726 -1.17144,-8.041 -0.42157,-7.872 -5.07825,-28.612 -1.46519,-17.938 -2.1153,-11.618 -1.2564,-15.022 -1.1367,-7.986 -1.6902,-18.758 0.0754,-11.924 -0.9723,-6.215 -0.2796,-7.142 0.5473,-5.858 2.3186,-13.197 1.7066,-17.372 -0.5363,-16.061 1.4613,-24.6 -0.4435,-6.089 -1.0184,-7.478 -1.657,-25.274 0.1503,-5.796 -0.3283,-10.775 0.7854,-9.438 -0.4702,-6.916 0.148,-6.323 -1.1394,-8.516 -0.989,-2.55 -1.5657,-0.736 -0.3235,0.157 -2.2778,-0.643 -3.3338,0.437 -1.0003,-0.142 -3.9299,1.62 -5.3685,1.663 -6.4021,1.455 -7.5865,0.653 -3.1356,0.473 -1.2565,0.489 -0.6167,-0.165 -3.0793,0.386 -3.769,-0.514 -7.8445,0.519 -4.2102,-0.83 -0.3249,0.316 -0.3195,-0.573 0.1998,0.555 -0.1384,-0.548 -0.2267,0.329 0.3287,-0.063 -0.2768,2.72 -3.4075,12.184 -1.1441,5.572 -1.2002,14.473 -2.7205,15.619 -0.376,16.109 -0.8673,12.489 5e-4,4.33 0.6849,8.152 -0.0332,5.078 -1.0728,10.469 -1.4567,8.895 -0.4166,11.588 -0.8512,6.98 -2.5046,13.913 -0.735,10.666 -0.7465,4.8 -1.9866,8.59 -1.9088,5.876 -3.2939,14.478 -3.767,13.77 -3.333,9.28 -0.814,4.222 -0.796,10.127 -1.284,10.973"
     id="path3" />
</g>
<g
   id="g4"
   transform="translate(-172.92,-257.73263)">
  <path
     fill="none"
     stroke="#000000"
     stroke-width="6"
     stroke-linecap="round"
     stroke-linejoin="round"
     d="m -129.726,572.488 -1.107,-3.101 -1.434,-5.433 -1.878,-5.271 -4.582,-21.152 -3.178,-18.918 -1.063,-14.983 0.12,-5.031 1.313,-22.465 2.038,-14.989 0.148,-32.741 -1.647,-20.77 -1.075,-6.702 -1.34,-20.63 -2.277,-12.335 -1.081,-12.969 -0.693,-4.726 -2.095,-9.947 -1.191,-8.272 -0.228,-7.528 -0.763,-6.927 -0.063,-7.384 -1.432,-11.681 -0.303,-7.986 -0.859,-3.266 -0.927,-6.453 -2.477,-12.778 -0.691,-2.13 -0.822,-0.97 -0.983,-0.538 -0.223,0.166 -1.607,-1.145 -2.808,-0.579 -7.325,0.334 -5.256,1.152 -1.189,0.526 -10.795,0.436 -10.864,-0.853 -2.909,0.408 -3.743,-0.383 -2.154,0.152 -1.048,-0.395 -3.605,0.134 -5.867,-1.236 -2.011,-0.249 -0.753,0.189 -4.309,-0.717 -2.029,-0.649 -3.081,-0.172 -1.099,-0.804 0.244,0.159 -0.184,0.289 -0.092,-0.343 0.104,0.469 -0.137,-0.229 -0.344,0.454 -1.83,0.192 -0.577,0.972 -0.749,0.288 0.154,-0.19 -0.186,0.491 0.283,-0.013 -0.378,0.217 -1.277,10.873 -1.391,5.563 -2.245,12.752 -0.977,21.972 0.188,7.156 -0.306,10.724 0.583,14.295 -0.296,6.957 0.078,9.439 0.546,4.616 0.345,7.395 0.636,3.343 0.609,6.822 0.527,9.11 0.523,3.009 0.175,4.728 2.267,15.673 0.732,15.795 1.308,10.551 0.661,3.019 0.443,8.275 0.086,19.727 -0.715,7.48 -1.298,7.292 -0.578,6.154 0.164,5.533 -0.997,8.273 0.043,7.088 -0.303,4.371 -0.275,0.536 0.227,4.957 1.216,7.944 0.322,5.05 1.47,6.221 0.416,0.476 1.995,6.693 0.7,3.855 1.08,14.368"
     id="path4" />
</g>
<g
   id="g5"
   transform="translate(-172.92,-257.73263)">
  <path
     fill="none"
     stroke="#000000"
     stroke-width="6"
     stroke-linecap="round"
     stroke-linejoin="round"
     d="m -264.037,567.35 -5.105,-12.073 -5.718,-16.196 -4.131,-18.085 -1.502,-16.053 -0.611,-12.762 -0.087,-12.322 0.1,-6.867 1.691,-15.041 0.956,-16.075 -0.09,-11.052 0.241,-1.268 -0.636,-14.926 -0.843,-5.871 -0.863,-2.888 -1.814,-10.891 -0.73,-9.397 -2.142,-11.249 -1.302,-5.068 -0.827,-10.161 -0.022,-3.609 -1.024,-5.551 -0.439,-4.366 -0.18,-5.72 0.264,-5.142 -0.668,-2.527 -0.359,-4.345 -1.37,-3.061 -0.696,-2.548 -0.465,-0.353 -0.431,-1.135 -0.736,-0.351 -0.173,-0.659 -0.418,-0.231 -0.67,0.204 -0.438,-0.886 -1.509,-0.038 -0.156,0.337 -0.978,-0.806 -2.619,-0.463 -2.661,-1.173 -2.088,-0.155 -3.359,-1.672 -6.473,-2.016 -4.377,-0.539 -2.614,0.089 -5.232,-1.335 -2.451,-0.107 -4.175,-1.227 -2.279,-0.064 -5.614,0.599 -2.979,0.843 -1.413,-0.823 -0.312,0.569 0.202,0.138 -0.053,-0.547 0.194,0.116 -0.248,-0.063 0.316,0.144 -0.418,0.049 0.142,-0.247 0.055,0.661 -0.032,-0.715 -0.002,0.316 -0.283,-0.258 -2.62,0.739 -1.729,-0.079 -2.392,0.468 -1.819,0.811 -0.463,0.617 -3.718,1.594 -3.739,2.409 -0.653,0.004 -3.277,1.615 -3.771,0.936 -0.601,-0.131 -0.846,0.759 -0.831,0.27 -0.376,-0.271 -0.512,0.507 0.341,-0.316 -0.262,-0.01 0.072,0.414 -0.233,-0.348 0.397,0.314 -0.236,0.029 0.297,1.313 -0.046,3.42 -1.517,9.886 -1.887,8.875 -0.521,1.322 -0.78,5.686 -2.024,10.081 -0.6,9.473 0.857,14.598 0.319,1.535 0.299,11.849 -0.057,7.231 -0.266,1.34 0.111,9.301 0.312,4.993 0.711,4.211 1.725,6.712 2.326,6.484 1.112,7.011 1.862,8.054 0.878,5.284 -0.083,1.129 1.422,6.175 1.197,11.679 0.493,11.666 0.275,1.085 -0.679,6.676 0.606,5.514 -0.174,3.733 0.254,1.016 -1.317,8.378 -2.201,6.801 -1.016,5.527 0.166,2.453 -0.458,6.703 0.169,3.466 -0.761,3.722 0.111,0.999 -0.617,1.817 -0.648,9.872 -1.451,7.278 -0.608,1.619 -0.317,2.315"
     id="path5" />
</g>
<g
   id="g6"
   transform="translate(-172.92,-257.73263)">
  <path
     fill="none"
     stroke="#000000"
     stroke-width="6"
     stroke-linecap="round"
     stroke-linejoin="round"
     d="m -399.005,569.954 -0.683,-2.245 -0.618,-0.986 -0.776,-3.724 -0.99,-2.116 -2.763,-11.804 -0.246,-4.108 -1.139,-3.511 -0.919,-5.635 0.112,-1.642 -1.105,-3.419 -2.246,-19.744 -0.278,-9.352 1.033,-12.968 -0.26,-1.005 0.599,-9.27 -0.209,-5.467 -0.479,-2.27 0.009,-3.62 -0.524,-2.828 -0.848,-1.936 -0.794,-4.958 -2.07,-5.991 -0.249,-1.968 -1.231,-2.597 -0.291,-1.257 0.168,-0.671 -0.751,-1.55 -0.559,-5.497 -0.659,-1.477 -0.19,-2.017 -0.55,-0.512 -0.344,-1.682 -0.945,-1.212 -0.459,-2.204 -0.592,-0.657 -0.42,-1.281 -0.657,-0.22 -0.447,-1.183 0.144,-0.708 -0.489,-0.126 -0.24,-0.795 -0.431,-0.171 0.113,-0.522 -0.452,-0.095 -0.004,-0.613 -0.543,-0.918 -0.226,0.552 0.011,-0.75 -0.374,-0.433 0.191,-0.089 -0.906,0.37 -0.178,-0.536 -0.461,-0.068 -0.879,0.662 -2.013,-0.382 -1.701,0.298 -6.114,2.169 -0.582,-0.331 -5.05,1.853 -0.953,0.634 -3.315,0.224 -5.825,1.674 -0.945,0.524 -7.245,1.049 -0.942,-0.152 -3.238,0.877 -4.915,0.385 -2.196,1.201 -2.864,0.632 -0.438,-0.155 -1.919,0.844 -2.588,0.524 -1.161,-0.679 -0.674,0.491 -0.159,-0.227 0.002,0.351 0.327,-0.024 -0.301,-0.23 -0.228,0.333 0.618,-0.303 -0.621,0.232 0.472,-0.387 -0.281,0.397 0.227,0.128 0.034,-0.374 -0.239,0.11 0.123,0.601 -0.122,-0.266 -0.479,1.291 -0.524,0.414 -0.737,2.002 -1.424,2.205 -1.241,2.74 -3.529,11.533 -0.021,2.169 -0.897,5.806 0.143,2.257 -0.743,2.487 -0.131,1.688 -0.248,7.94 0.35,0.767 -1.236,7.568 -0.105,2.933 -0.892,3.552 -1.366,10.1 -0.394,0.978 0.15,2.339 -0.64,3.055 -0.859,11.544 -0.013,7.367 -0.996,8.65 -0.446,8.855 -0.671,3.525 -0.321,7.385 0.181,1.63 -0.671,4.223 -0.016,3.782 -0.396,3.332 0.132,2.928 -0.788,8.104 0.123,4.123 -1.31,7.789 -0.086,4.461 -0.946,8.647 -2.721,14.767 -1.657,5.863 -1.948,8.91 -0.006,1.525 -1.241,4.258 -3.577,22.056 -2.617,10.547 -1.369,8.045 -0.549,6.546 -0.651,2.999 0.133,1.655 -1.455,5.531 -0.933,7.446 -0.679,6.419 0.06,4.777 -0.687,3.358 -0.22,4.961 0.212,1.561 -0.429,3.031 0.236,1.431 -0.42,1.745 -0.107,2.503 -0.62,1.751 0.356,5.047 -0.434,12.259 0.86,15.135 0.257,8.215 -0.22,1.645 0.646,5.774 0.232,9.022 -0.297,1.622 0.202,5.324 -0.486,3.95 0.184,1.686 -0.896,10.753 -0.965,5.184 -1.039,15.249 0.092,4.011 0.544,1.378 -0.576,4.85 0.256,3.511 -0.195,4.317 0.372,7.463 0.576,1.426 -0.453,4.081 0.292,9.313 -0.264,4.145 -0.391,1.666 0.183,5.441 -0.436,9.34 0.256,4.156 -0.519,5.088 0.404,10.635 -0.2,4.936 1.148,11.41 -0.155,1.502 0.534,7.458 0.779,6.179 0.749,1.918 0.595,3.188 -0.11,1.305 3.112,9.317 1.545,8.424 0.644,1.418 0.667,5.41 0.817,3.056 0.371,3.939 0.285,12.56 0.488,1.599 -0.884,10.02 -0.468,16.66 -1.043,13.3 -1.09,3.34 -0.657,7.39 -0.668,2.26 -0.169,1.95 0.938,2.58 -0.033,2.24 0.306,1.1 -0.31,0.59 0.959,2.96 -0.254,1.82 0.527,1.23 0.221,3.24 0.71,2.65 0.504,4.28 0.454,0.99 -0.254,3.78 0.206,4.19 0.813,6.2 1.016,4.43 -0.099,1.46 0.96,3.49 0.076,2.39 0.854,5.43 2.232,8.77 -0.021,0.81 0.603,0.94 0.031,0.83 0.847,1.96 0.728,4.23 0.555,0.74 0.953,5.57 -0.13,0.99 1.237,2.53 0.553,3.98 1.989,6.56 0.198,3.7 0.866,4.49 -0.204,1.25 2.029,6.26 0.422,6.62 0.078,0.31 0.174,-0.13 0.91,5.5 2.19,7.22 0.244,3.3 1.221,3.37 0.08,1.88 2.484,5.91 -0.01,1.84 0.767,0.71 0.197,1.77 0.477,1.12 -0.202,0.55 0.698,0.68 1.164,3.51 0.284,2.62 h -0.266 l 0.304,0.16 0.126,-0.44 0.215,0.67 -0.225,1.33 0.323,1.8 0.691,1.14 -0.052,2.12 0.347,1.95 1.639,5.91 0.469,0.7 0.359,-0.38 0.876,2.79 1.652,3.53 2.022,2.94 0.548,2.52 2.147,2.81 0.282,1.71 0.515,0.34 2.246,3.9 1.706,1.79 0.369,1.27 0.13,-0.17 0.405,0.33 1.103,1.6 h 0.442 l 0.859,1.09 0.614,1.33 -0.18,0.35 3.201,3.43 1.035,1.66 0.371,1.28 0.764,0.13 1.523,2.6 0.256,1.12 0.701,0.61 1.441,3.56 3.09,4.03 1.331,3.96 0.359,0.44 0.391,-0.12 0.56,0.76 2.339,4.51 0.611,0.33 0.787,1.31 0.483,0.11 0.916,2.32 1.126,1.23 0.273,-0.19 0.58,0.99 0.248,1.28 2.776,3.89 0.235,1.25 0.537,-0.02 1.217,2.18 1.25,0.72 1.069,1.6 0.858,0.61 2.451,5.02 1.951,2.27 3.109,5.47 1.066,1.2 1.929,4.79 1.528,1.38 1.739,4.26 0.743,0.64 0.938,-0.59"
     id="path6" />
</g>
<g
   id="g7"
   transform="translate(-172.92,-257.73263)">
  <path
     fill="none"
     stroke="#000000"
     stroke-width="6"
     stroke-linecap="round"
     stroke-linejoin="round"
     d="m -396.604,559.002 -0.649,-0.11 0.394,0.211 0.314,4.653 1.443,6.241 0.431,7.977 1.753,11.918 0.64,0.616 0.348,1.295 0.636,9.836 0.645,1.935 0.444,4.03 1.213,5.107 0.096,2.526 0.661,3.372 0.933,2.158 0.46,2.778 0.634,1.098 0.856,4.783 0.159,2.693 0.277,0.33 2.041,11.969 0.92,2.088 1.001,4.307 0.984,8.55 0.748,2.028 0.445,3.23 0.117,-8.677 -0.406,-7.428 1.146,-31.207 -0.002,-19.95 0.849,-15.612 -0.064,-6.225 -0.848,-7.203 0.15,-3.532 -0.298,-1.081 0.546,-5.734 0.546,-1.015 -0.127,-0.691 -0.156,0.455 1.397,-3.591 -0.215,-0.309 0.72,1.463"
     id="path7" />
</g>
<g
   id="g8"
   transform="translate(-172.92,-257.73263)">
  <path
     fill="none"
     stroke="#000000"
     stroke-width="6"
     stroke-linecap="round"
     stroke-linejoin="round"
     d="m -265.427,561.138 0.12,1.423 -0.205,-0.685 0.671,0.344 0.898,1.418 1.096,4.164 0.831,5.768 1.752,4.494 1.898,7.855 0.591,5.846 2.179,12.709 1.175,4.479 1.286,7.338 0.418,0.818 2.527,13.664 0.726,2.347 1.703,10.233 0.654,1.793 -0.413,-1.825 0.273,-1.613 1.551,-1.627 1.524,-3.216 0.498,-1.289 0.731,-4.738 2.551,-24.119 2.571,-17.104 0.314,-0.622 0.387,-13.371 1.275,-9.202 0.723,-2.516 1.326,-2.48 0.052,-0.82 0.9,-0.731 0.512,-0.976 1.098,-3.779 0.15,0.631 0.279,-0.407 0.581,0.127 0.24,-0.45 1.053,-0.163"
     id="path8" />
</g>
<g
   id="g9"
   transform="translate(-172.92,-257.73263)">
  <path
     fill="none"
     stroke="#000000"
     stroke-width="6"
     stroke-linecap="round"
     stroke-linejoin="round"
     d="m -126.151,567.05 -0.224,0.019 0.29,-0.47 -0.031,0.293 0.923,0.769 0.417,1.094 1.359,13.534 0.304,7.407 4.173,22.292 0.186,8.342 2.171,16.69 0.923,12.216 1.31,-16.279 2.15,-11.053 0.674,-5.392 0.537,-17.083 0.816,-10.928 2.546,-15.535 0.302,-7.399 0.435,-3.134 -0.064,0.859 1.958,0.668"
     id="path9" />
</g>
<g
   id="g10"
   transform="translate(-172.92,-257.73263)">
  <path
     fill="none"
     stroke="#000000"
     stroke-width="6"
     stroke-linecap="round"
     stroke-linejoin="round"
     d="m 7.91833,667.124 -0.22821,0.245 0.33039,-0.124 0.16699,0.38 0.19568,1.56 0.2334,5.82 0.95733,2.398 0.69019,3.402 0.33,0.208 -0.1253,-0.52 0.1226,0.647 -0.0246,-0.534 0.1852,0.38 0.0413,-0.722 0.0251,0.724 0.8358,0.681 0.2014,0.853 0.0293,-1 -0.031,0.455 -0.0057,-0.293 3.2372,1.202 -0.4234,-0.364 0.2011,0.265 1.1462,-2.954 1.6451,-1.284 0.6784,0.184 1.1914,-1.182 3.489,-18.779 2.244,-6.938 0.6395,-4.334"
     id="path10" />
</g>
<g
   id="g11"
   transform="translate(-172.92,-257.73263)">
  <path
     fill="#000000"
     d="m -232.3,1191.75 v 0 l 18.863,-2.12 12.134,-2.47 2.769,-0.99 1.061,0.65 1.761,-0.87 14.137,-3.76 2.047,-1.01 1.056,0.64 4.537,-2.54 -0.914,-1.78 0.372,-0.32 2.949,1.64 2.027,-1.62 0.972,0.64 1.088,0.02 3.363,-1.82 0.193,-1.19 1.66,-1.12 3.691,-1.56 1.035,0.63 6.006,-3.66 2.179,1.57 0.396,-0.85 4.669,-3.09 12.674,-4.58 3.074,-1.99 0.974,0.64 1.053,-0.01 0.522,-0.88 3.044,-1.43 8.495,-2.42 2.912,-1.9 1.029,0.62 11.9418,-6.64 0.8253,0.53 1.4098,-1.42 0.797,0.51 0.9981,-0.6 1.004,0.6 -0.0297,-1.64 1.6728,-0.26 1.706,-1.8 1.675,0.05 0.9759,0.65 -0.0289,-1.63 1.8205,0.54 1.6829,-1.23 0.5236,0.32 1.5508,-0.85 1.8971,-2.83 0.8479,0.38 -0.5965,1 0.2949,0.3 1.303,-1.3 -0.5998,-1.01 0.2755,-0.32 1.7779,0.53 2.2273,-2.57 1.0201,0.67 4.2101,-3.51 0.792,0.51 1.7825,-1.61 1.7123,-2.67 1.5033,0.28 3.3093,-3.08 2.3803,-1.44 5.3104,-5.3 0.5732,-1.11 7.2111,-6.68 3.4302,-5.38 5.5698,-6.62 3.0282,-4.97 7.1975,-17.29 2.3223,-7.39 -0.6322,-1.04 0.7841,-2 0.0013,-11.99 -1.6931,-8.04 -2.9755,-8.73 -6.0288,-10.92 -3.0066,-3.52 -0.528,0.39 -1.4689,-2.88 -4.1834,-3.67 -0.2039,-1.27 -4.7078,-4.15 -2.6343,-1.58 -1.6896,-0.24 -1.6998,-2.21 -5.1837,-3.76 -4.227,-1.7 -0.5515,-0.73 0.5038,-0.78 -1.9053,-1.39 -2.3276,0.5 0.3243,-1.331 -0.8259,-0.999 -1.2685,0.212 -1.4093,-1.424 -0.7706,0.554 -1.0501,-10e-4 -2.1927,-2.545 -0.5645,0.408 -2.2175,-2.501 -0.811,0.514 -1.1848,-0.975 -1.1757,1.032 -3.5531,-1.528 -0.5717,-0.746 0.504,-0.784 -2.1537,-1.572 -3.0792,0.686 0.3228,-1.328 -0.6153,-0.788 -4.6267,-2.57 -1.2742,0.176 1.2654,1.533 -2.1006,0.008 -2.3432,-1.731 -0.181,-1.172 -3.3622,-1.818 -1.278,0.18 1.265,1.533 -2.101,0.009 -10.722,-4.032 -25.187,-5.663 -1.074,0.665 -12.922,-2.671 -1.082,0.677 -7.918,-1.676 -1.074,0.665 -2.228,-1.328 5.508,-2.818 24.479,-9.355 3.74,-1.822 7.218,-4.215 2.949,-2.363 5.154,-5.741 1.846,-3.597 1.736,-6.027 -0.007,-6.115 -2.615,-5.673 -2.958,-4.957 -3.099,-3.101 -2.661,-1.538 -1.03,0.622 -0.474,-0.3 -2.821,-3.768 -8.667,-2.564 -1.038,0.632 -3.97,-2.622 -1,0.665 -1.088,0.018 -10.37,-3.35 -29.8,-10.862 -15.737,-4.477 -1.071,0.662 -9.924,-2.668 -1.08,0.674 -9.948,-1.693 -3.952,1.715 -1.54,-0.359 -1.316,-1.214 -1.406,1.424 -1.768,-1.553 -1.09,-0.022 -4.902,1.696 -1.037,-0.632 -2,1.598 -1.043,-0.641 -17.388,1.682 -12.847,2.151 -1.668,0.864 -3.113,-0.716 -3.907,1.69 -1.071,-0.661 -3.153,0.899 -12.209,1.913 -12.285,5.732 -1.667,1.762 0.348,2.507 1.648,0.886 2.311,-1.85 2.037,-0.003 8.973,2.815 1.063,-0.652 2.941,1.693 2.028,-1.097 1.962,1.209 5.033,0.004 15.966,-2.824 1.014,0.681 2,-0.686 2.061,0.672 3.932,-1.658 1.007,0.672 2.027,-0.642 1,0.598 1,-0.598 0.971,0.641 1.091,0.022 5.899,-1.699 1.039,0.634 2.004,-0.783 2.022,0.132 0.974,0.651 0.974,-0.651 2.022,-0.132 2.041,0.817 4.926,-1.666 2.036,1.632 0.974,-0.642 2,0.686 2,-0.686 1.818,0.554 2.161,-1.682 1.095,0.121 -0.537,0.947 3.262,1.116 10.338,2.143 4.853,1.477 1.074,-0.666 7.392,2.322 29.292,10.261 10.004,4.001 1.274,1.048 1.029,-0.621 6.91,2.689 1.696,0.233 1.701,2.211 4.031,3.545 -0.366,1.127 -1.028,1.04 -4.287,3.265 -19.651,8.541 -1.007,-0.672 -1.052,0.01 -0.486,0.796 -6.879,2.501 -2.556,1.398 -2.702,0.24 -1.707,1.765 -1.436,-0.578 -2.201,1.576 -1.009,-0.664 -1.274,1.049 -3.691,1.579 -1.037,-0.628 -0.569,0.932 -2.373,1.723 -2.056,-0.655 -2.998,2.598 -0.974,-0.642 -1.052,0.013 0.05,1.66 -2.059,-0.659 -7.65,3.541 -2.101,2.098 -1.571,2.635 0.655,2.055 -0.597,0.998 0.509,0.792 -1.601,1.552 -0.004,1.289 2.735,2.344 -0.64,2.028 2.509,2.208 0.794,-0.507 0.52,0.791 4.221,1.771 3.259,3.033 -0.029,-1.629 1.506,0.328 1.493,1.353 2.052,10e-4 0.947,-0.694 1.052,0.012 -0.026,0.805 -1.296,1.526 0.324,0.327 3.791,-1.599 2.179,1.623 -0.297,-1.358 1.327,-0.336 0.945,0.693 1.723,0.261 1.323,1.132 3.023,-1.082 7.918,1.676 1.041,-0.637 0.974,0.651 h 2.052 l 1.011,-0.684 3.176,0.896 19.715,2.582 14.033,3.189 1.039,-0.634 1.999,1.598 1.001,-0.598 1,0.598 1.029,-0.622 2.941,1.645 0.82,-0.533 1.552,1.575 1.454,-0.576 1.408,1.424 1.428,-0.577 1.679,2.145 9.414,3.47 22.7397,10.74 10.2189,6.22 1.6262,1.57 8.3803,5.44 3.8253,3.78 1.1181,0.57 3.1514,3.74 4.7942,7.35 1.6273,1.55 -0.4146,0.58 1.4201,1.41 -0.5536,0.77 -0.0185,1.09 1.6118,3.14 0.7563,-0.5 0.3222,0.27 -0.6294,2.03 0.5972,1 -0.5087,0.79 1.6932,2.17 0.0035,10.03 -2.6504,8.74 -5.0861,11.99 -5.9657,7.49 -0.7895,-0.51 -0.2928,0.3 0.5979,1 -3.5106,5.68 -10.0985,10.1 -2.6624,1.7 -3.3377,3.3 -10.2181,7.2 -29.745,15.77 -53.693,21.58 -1.68,-0.7 -2.343,1.73 -0.807,-0.57 -1.408,1.42 -0.769,-0.55 -1.088,-0.02 -4.685,1.63 -1.253,1.03 -0.972,-0.64 -1.088,-0.02 -6.949,2.16 -6.211,1.11 -33.96,4.4 0.359,0.39 -8.963,1.6 -1.216,1 -1.005,-0.6 0.203,1.05 -8.888,5.47 -0.478,1.08 1.643,1.72 0.819,-0.2 3.991,2.94 2.712,0.98 5.963,1.6 1.013,-0.69 3.054,0.01 0.315,1.37 -0.639,0.97 m 35.318,-6.71 v 0 l -0.027,-0.59 m 9.027,-1.41 v 0 l -0.027,-0.59 m -3.705,1.28 v 0 l -0.593,0.02 m 8.331,-1.54 v 0 l -1.334,-0.46 2.329,-0.34 -0.003,0.68 m 7.002,-2.05 v 0 l -0.027,-0.59 m -2.285,0.32 v 0 l 0.593,-0.02 m -2.013,0.97 v 0 l -1.31,0.36 -0.282,-0.33 1.332,-0.33 m 19.26,-4.64 v 0 l -1.31,-0.36 -0.282,0.33 1.332,0.33 m 2.26,-1.31 v 0 l -0.593,-0.02 m 70.5934,-28.98 v 0 l -0.5931,-0.02 m 16.3245,-9.71 v 0 l -0.0266,-0.59 m 5.0265,-2.41 v 0 l -0.0265,-0.59 m 0.7143,-0.68 v 0 l 0.5931,-0.02 m 3.7191,-2.71 v 0 l -0.0265,-0.59 m 38.0266,-53.41 v 0 l -0.0267,-0.59 m -16.7047,-6.68 v 0 l -0.5931,-0.02 m 17.3245,-18.71 v 0 l -0.0267,-0.59 m -21.9733,-7.41 v 0 l -0.0266,-0.59 m -11.9734,-14.41 v 0 l -0.0266,-0.59 m 25.2951,-0.68 v 0 l -0.593,-0.02 m -40.6755,-8.71 v 0 l -0.0266,-0.59 m 32.2952,-0.68 v 0 l -0.5931,-0.02 m -1.4069,-1.98 v 0 l -0.5931,-0.02 m -34.6755,0.29 v 0 l -0.0266,-0.59 m 32.2952,-1.68 v 0 l -0.5931,-0.02 m -37.6755,-0.71 v 0 l -0.0266,-0.59 m 29.0265,-1.41 v 0 l -0.0265,-0.59 m -33.9734,0.59 v 0 l -0.0266,-0.59 m -1.9734,-0.41 v 0 l -0.0266,-0.59 m -1.9734,-0.41 v 0 l -0.0266,-0.59 m -1.9546,-0.38 v 0 l -1.3455,-0.32 1.3291,-0.33 m -3.0022,-0.38 v 0 l -0.027,-0.59 m -1.973,-0.41 v 0 l -0.027,-0.59 m -2.973,-0.41 v 0 l -0.027,-0.59 m -1.973,-0.41 v 0 l -0.027,-0.59 m -2.954,-0.383 v 0 l -1.346,-0.314 1.329,-0.332 m -5.002,-2.381 v 0 l -0.027,-0.593 m 38.0267,-1.407 v 0 l -0.0265,-0.593 m -48.7052,-0.719 v 0 l -0.593,0.027 m 45.5926,-1.978 v 0 l -1.3101,-0.359 -0.2817,0.332 1.3326,0.332 m -5.0086,-1.042 v 0 l -0.0266,-0.593 m -49.7052,1.281 v 0 l -0.593,0.027 m 46.3436,-2.688 v 0 l -1.3455,-0.314 1.3292,-0.332 m -3.0025,-0.381 v 0 l -0.0266,-0.593 m -6.9542,-2.38 v 0 l -1.346,-0.314 1.329,-0.332 m -94.002,0.619 v 0 l -0.027,-0.593 m -5.973,-0.407 v 0 l -0.027,-0.593 m 86.295,-4.675 v 0 l -0.593,-0.027 m -2.719,-0.705 v 0 l 0.027,-0.593 m -1.715,0.325 v 0 l -0.593,-0.027 m -91.675,-3.705 v 0 l -0.027,-0.593 m 18.027,-15.407 v 0 l -0.027,-0.593 m 10.027,-1.407 v 0 l -0.027,-0.593 m 67.983,-10.407 v 0 l 0.027,-0.593 m -27.983,-37.407 v 0 l -0.027,-0.593 m -80.973,-4.407 v 0 l -0.027,-0.593 m -8.973,-15.407 v 0 l -0.027,-0.593"
     id="path11" />
</g>
<metadata
   id="metadata11">
  <rdf:RDF>
    <cc:Work
       rdf:about="">
      <dc:title>Wevsite quiz</dc:title>
    </cc:Work>
  </rdf:RDF>
</metadata>
</svg>
