<?xml version="1.0" encoding="UTF-8" standalone="no"?>
<!-- Created with Inkscape (http://www.inkscape.org/) -->

<svg
   version="1.1"
   id="svg1"
   width="340.49335"
   height="340.44537"
   viewBox="0 0 340.49335 340.44537"
   sodipodi:docname="symbol4.svg"
   inkscape:version="1.3.2 (1:1.3.2+202311252150+091e20ef0f)"
   xmlns:inkscape="http://www.inkscape.org/namespaces/inkscape"
   xmlns:sodipodi="http://sodipodi.sourceforge.net/DTD/sodipodi-0.dtd"
   xmlns="http://www.w3.org/2000/svg"
   xmlns:svg="http://www.w3.org/2000/svg">
  <defs
     id="defs1" />
  <sodipodi:namedview
     id="namedview1"
     pagecolor="#ffffff"
     bordercolor="#666666"
     borderopacity="1.0"
     inkscape:showpageshadow="2"
     inkscape:pageopacity="0.0"
     inkscape:pagecheckerboard="0"
     inkscape:deskcolor="#d1d1d1"
     inkscape:zoom="0.59970051"
     inkscape:cx="-35.851229"
     inkscape:cy="245.9561"
     inkscape:window-width="1920"
     inkscape:window-height="1051"
     inkscape:window-x="1920"
     inkscape:window-y="0"
     inkscape:window-maximized="1"
     inkscape:current-layer="g1">
    <inkscape:page
       x="0"
       y="0"
       inkscape:label="1"
       id="page1"
       width="340.49335"
       height="340.44537"
       margin="0"
       bleed="0" />
  </sodipodi:namedview>
  <g
     id="g1"
     inkscape:groupmode="layer"
     inkscape:label="1"
     transform="translate(-83.740906,-160.64729)">
    <path
       id="path39"
       d="m 314.33014,218.18053 v 0 l 1.81665,0.49673 0.33029,-0.20106 1.19864,1.14387 0.49991,0.8354 v 2.25303 l -0.53388,0.92408 0.16941,0.26159 -0.45151,0.44683 0.1694,0.26162 -0.65054,1.02116 -1.11472,2.36796 -0.79303,0.80893 -1.10974,2.67797 -0.80322,0.81943 -1.43091,2.12022 0.19727,0.32625 -0.48758,0.84352 -0.67404,0.72339 0.203,0.64392 -0.41147,-0.0961 -0.31702,0.1897 -0.31875,-0.19008 -0.10285,0.0873 0.21305,0.96746 -1.7591,1.64433 0.17426,0.24023 0.005,0.34284 -0.66721,1.02087 -1.09024,2.65708 -0.64017,0.49317 0.21537,0.58036 -0.53308,0.68583 0.16107,0.25199 -0.29883,0.18196 -1.44882,2.10107 -0.2508,-0.16075 -0.10229,0.0868 0.16037,0.73536 -0.52774,0.84932 -0.37018,0.19438 -0.35339,0.53494 -0.572,1.3848 -1.20111,1.17631 0.18222,0.45274 -0.94992,0.80248 -0.8031,1.47543 0.211,0.31729 -2.7e-4,0.33432 -2.01001,2.05933 -0.008,0.25525 0.64316,-0.19922 0.0927,0.0927 -0.17764,0.23542 -1.03202,0.51065 0.17945,0.3164 -0.64932,-0.20416 -0.17191,0.26968 -0.90045,0.60123 0.21692,0.4924 -0.0959,0.11069 -0.74432,-0.55493 -0.52329,-0.0319 -1.59216,0.0467 -0.62662,0.52301 10e-4,-0.24524 0.41202,-0.48499 -0.42093,-0.1069 -0.30951,0.20316 -0.0929,-0.0928 0.16086,-0.25192 -2.28528,-2.13492 0.0943,-0.46704 -0.10218,-0.15988 -0.83706,-0.53546 -0.49103,-0.79161 -0.8826,-0.827 -0.30841,0.20354 h -0.33429 l -0.32068,-0.21495 -1.88995,0.50467 -1.27936,0.65861 -1.91751,-0.53936 -1.23108,-0.61998 -0.41403,0.3404 -2.03235,0.76932 -2.31653,1.30615 -0.32617,-0.19729 -1.99469,1.30423 -1.71228,0.77917 -0.72113,0.64942 -0.31723,-0.1897 -0.72086,0.64935 -1.49743,0.8082 -0.31732,-0.18982 -1.05097,0.97879 -2.33719,1.40295 -2.09805,1.76535 -4.23886,2.67078 -1.78534,1.45084 -1.47554,0.80313 -0.50269,-0.2236 -0.53538,0.81854 -0.23091,-0.17157 -0.33258,0.004 0.1125,0.74649 -0.84062,-0.0609 -0.14574,0.74588 -0.37775,0.36914 -0.65043,3.3e-4 -0.30895,-0.20645 -0.1495,0.0946 -0.2369,0.26049 0.25681,0.29981 -1.13779,0.80273 -0.3255,-0.19641 -0.49603,0.392 -0.0213,0.7186 -0.29459,0.4671 -1.62805,0.82181 -2.08926,1.75543 -1.73702,1.08505 -0.43994,-0.46679 -0.69044,0.51641 0.11398,0.29471 0.31935,-0.18927 0.0933,0.0935 -0.26152,0.31805 -0.46698,-0.0948 -0.31696,0.18973 -0.31714,-0.18973 -3.70509,2.38169 -0.52245,0.57858 1.17051,7.63455 0.35533,0.60178 0.26092,-0.01 -0.47854,0.56921 0.53323,0.68512 -0.24423,0.64847 0.18977,0.31701 -0.21113,0.52149 0.58596,0.73239 -0.0412,0.65604 -0.26524,0.62671 0.0466,0.95742 0.51863,-0.009 -0.1895,0.31821 0.18937,0.31637 -0.16124,0.25101 0.53305,0.68582 -0.26558,0.85309 0.58621,0.7323 6.1e-4,3.18241 -0.26205,0.96066 0.5366,0.61694 3.2e-4,0.65039 -0.20575,0.30918 0.2357,0.15887 0.58237,2.00528 -0.41366,0.5227 -0.1045,1.1305 0.31829,-0.17972 0.85969,2.04849 0.0378,2.87003 -0.25607,0.64407 0.50197,0.88236 -0.55232,0.67974 -2.8e-4,0.33042 0.27661,0.46756 0.93381,6.8099 -0.20146,0.32947 0.20363,0.30835 -9e-5,0.33423 -0.22023,0.30005 -0.0421,0.64001 0.58777,2.5181 0.0749,2.4473 0.50884,0.49078 -0.45282,0.50861 -0.0222,0.74484 0.81094,3.71942 0.65276,0.65714 -0.4234,-0.0859 -0.15159,0.4133 -3.5e-4,7.60464 0.24862,0.63495 -0.15659,0.40463 0.80537,0.5315 -0.10907,0.48422 -0.42894,0.47311 -0.0374,0.32459 0.0916,0.38669 0.48601,-0.40103 0.0418,1.28161 -0.24855,0.63504 0.18947,0.31824 -0.5186,-0.009 -0.046,0.64029 0.15144,0.41339 0.63665,-0.50681 0.0935,0.0936 -0.32659,0.39859 -0.50744,1.49259 0.51706,0.64663 -0.41339,-0.0964 -0.14663,0.4122 0.89817,1.88312 -0.001,1.6203 -0.50011,0.68286 -0.25006,-0.16016 -0.10985,0.0953 0.49543,0.69861 -1.50603,1.84292 -0.40178,-0.20209 -1.01158,0.75351 -0.37113,-0.31076 -0.12811,0.26978 -1.39392,1.17581 -0.64273,-0.20325 -0.14989,0.0949 -0.26178,0.31668 0.18947,0.31842 -0.0933,0.0933 -0.30957,-0.20319 -0.33357,0.004 0.0709,0.34195 -1.39729,0.7792 0.16069,0.25308 -0.0928,0.0929 -0.3185,-0.18951 -0.15005,0.0949 -0.34855,0.5177 -1.33474,1.16519 -0.53633,0.84387 -0.89786,0.89148 -1.16934,0.79693 -0.3167,-0.1893 -0.15984,0.10224 -0.95785,1.25986 -0.46864,-0.0946 -1.33521,1.42847 -0.24933,-0.16046 -1.80043,1.11291 -0.20863,0.2414 0.20279,0.64315 -0.0933,0.0933 -0.31842,-0.18949 -1.05096,0.97876 -1.38424,0.76783 -0.51541,0.49881 -1.97041,1.3363 -0.46808,-0.0951 -0.11575,0.0951 -0.58379,0.70026 0.16118,0.25106 -0.25922,0.31699 -0.66973,0.18942 -0.61611,0.96079 -0.67378,0.48788 -0.34442,-0.12091 -0.57648,0.5528 -0.5197,0.845 -0.23068,-0.17148 -0.33258,0.004 0.10248,0.42288 -0.41266,-0.096 -0.11572,0.0951 -0.58381,0.70025 0.16117,0.25107 -0.26132,0.31607 -0.46781,-0.0944 -0.17184,0.26706 -3.5434,1.80844 -0.40413,0.33252 -0.30852,-0.20349 -0.33412,0.003 -0.17308,0.30664 -0.76033,0.53534 -0.31721,-0.21069 -0.33354,0.004 0.0741,0.35431 -0.55021,0.37451 -2.5987,1.01581 -1.88833,0.9627 -2.4189,2.0846 -1.282,0.81421 0.20912,0.5205 -0.20357,0.30835 v 0.33426 l 0.20354,0.30829 -0.2435,0.63391 0.24351,0.63391 -0.20655,0.30866 -0.0416,0.64105 0.26493,0.6268 0.0418,0.64099 -0.26497,0.62686 -0.042,1.59186 0.24807,0.63437 -0.16124,0.25113 0.49904,0.49176 -0.21013,0.52551 0.18972,0.31702 -0.20356,0.30826 0.20356,0.64258 -0.18972,0.31692 0.18972,0.31699 -0.24357,0.63388 0.24352,0.63391 -0.20351,0.30832 1.6e-4,0.33423 0.22015,0.30005 0.0462,0.64215 -0.0461,0.64218 -0.20654,0.30868 0.20352,0.30832 -2.7e-4,0.33429 -0.5338,0.61649 0.20329,0.64261 -0.18973,0.31695 0.20661,0.30869 0.0461,0.64215 -0.0463,0.64218 -0.26525,0.62677 0.0419,1.27496 0.20657,0.30866 -0.20657,0.30871 -0.0409,0.65491 0.38852,0.62695 -0.38955,1.26313 0.0419,1.27502 0.22064,0.32236 -0.53473,12.01669 0.2576,0.64761 -0.24353,0.63392 0.24852,0.63501 -10e-6,2.53338 -0.25801,0.64588 0.52562,1.24609 -0.19924,0.32779 0.20362,0.30835 1e-5,0.33429 -0.21497,0.32052 0.52939,1.87714 -0.21794,0.32089 0.003,1.28495 0.4342,0.0998 0.30952,-0.20322 -0.001,0.24524 -0.41201,0.48493 0.0871,0.10507 0.52592,0.0836 0.53881,0.69956 1.69775,1.08005 0.80847,0.79431 1.81327,0.5531 0.32028,0.27762 0.95872,-0.25745 1.8908,0.57144 0.3289,-0.20041 2.54179,1.59818 0.45627,-0.24252 0.80507,0.73583 0.31729,-0.18972 0.15044,0.095 0.68406,0.49869 0.81707,1.02023 -0.49544,0.69858 0.53306,-0.007 -0.19947,0.64178 0.18972,0.31717 -0.50669,0.63373 0.47877,0.56818 -0.49943,0.69711 0.21014,0.32071 -0.0933,0.0934 -0.3193,-0.1893 -0.11625,0.0956 -1.46757,1.43033 -0.18173,0.3544 -0.76139,0.59082 0.0554,0.39652 -1.39729,0.77923 0.16072,0.25309 -0.0929,0.0928 -0.31776,-0.18903 -0.24941,0.19477 -2.68306,5.83438 -1.28332,1.67193 0.19926,0.32801 -1.94841,4.50427 -1.3811,3.63922 -0.68053,1.34516 0.20662,0.33682 -0.59682,1.43316 -0.78386,0.60834 0.008,0.31635 -0.31665,0.26175 -0.3079,-0.2034 -0.34501,-0.006 -1.22989,0.54544 -0.43355,-0.0558 -1.47761,-0.79428 -0.24698,0.16498 -0.50573,-0.95669 -0.59082,-0.44257 0.17211,-0.26129 -0.51138,-1.81259 -0.7943,-0.80848 -2.35382,-3.9219 -0.66158,-0.73529 0.41344,0.0964 0.11079,-0.42941 -0.49815,-0.68262 -0.25021,0.16016 -0.0924,-0.0924 0.16144,-0.25381 -0.39129,-0.53296 0.0619,-0.2612 -0.75569,-1.38919 -0.49994,-0.51749 -1.88844,-3.15546 -0.47745,-1.09539 -1.25572,-1.88971 -2.24873,-2.24863 -0.84348,-0.48755 -0.32605,0.19724 -0.30835,-0.20359 h -0.33424 l -0.30956,0.20331 0.009,-0.51858 -0.95735,-0.0463 -0.4133,0.15158 0.19048,0.32053 -0.0876,0.10522 -0.97548,0.008 -0.73269,-0.54861 0.21065,-0.51703 -0.095,-0.15015 -0.51764,-0.34851 -0.74211,-0.87704 -0.42009,0.10623 0.20377,0.31012 -0.004,0.33353 -0.26606,-0.0175 -0.57647,-1.24967 0.32612,0.0511 0.84122,-3.52914 -0.10338,-0.44013 -0.48663,0.11319 -0.53287,0.69492 -0.0489,-0.39414 0.29039,-0.50854 0.75994,-0.53537 0.31719,0.21075 0.43783,-0.10827 -0.33312,-0.62152 0.43797,-0.37906 0.19405,0.0487 -0.18933,0.31943 0.41151,0.14679 0.41577,-0.0917 0.6017,-0.44239 -0.16809,-0.25805 0.48731,-0.84296 0.87428,-0.84354 0.97638,-0.003 0.91652,0.54651 h 0.66811 l 1.46742,-0.81561 0.51164,-0.56613 -0.16038,-0.24921 1.18313,-1.01925 0.46837,0.0944 0.17142,-0.26673 1.18159,-0.69815 1.0947,-0.47684 0.71228,-0.66293 0.64285,0.20331 1.07674,-0.84512 -0.0144,-1.15973 -0.20659,-0.30866 0.18974,-0.31698 -0.18974,-0.31696 0.20357,-0.30829 -1.2e-4,-0.33423 -0.26226,-0.62637 -0.005,-13.94482 0.0468,-0.64219 0.53677,-0.61688 -0.25712,-0.95956 0.24354,-0.63385 -0.18931,-0.31635 0.16122,-0.251 -0.50863,-0.49152 -0.0287,-0.84174 0.15288,-0.47082 0.42911,-0.47281 0.0423,-0.32642 V 409.378 l -0.24846,-0.63501 0.20349,-0.30829 -1e-4,-0.33426 -0.26226,-0.62637 -3.9e-4,-3.48328 0.57724,-2.20843 -0.25991,-0.64731 v -1.58255 l 0.24848,-0.63501 -0.24848,-0.63501 v -2.85034 l 0.30239,-0.952 -0.24332,-0.63513 0.41266,0.0959 0.11447,-0.29917 -0.58553,-0.73236 0.0413,-1.2901 0.21875,-0.32141 -0.51664,-2.26605 -0.22477,0.15387 -0.15854,-0.10117 -0.54341,-0.69238 -0.25026,0.16016 0.0967,-0.41135 -0.79781,-1.01529 -0.17895,0.12927 -0.49157,-0.63733 -1.32849,-1.01193 -0.47668,0.10221 -1.78662,-1.11414 -0.52892,-0.82898 -0.8445,-0.54135 0.22719,-0.45371 -0.71136,-0.65087 -0.25475,-0.008 0.19922,0.64303 -0.2448,-10e-4 -0.27516,-0.30811 0.20307,-0.64367 -0.0957,-0.11042 -0.69194,0.49588 -0.12313,-0.26782 -0.86631,-0.68176 -2.97368,-2.03858 -0.51001,-0.56558 0.18927,-0.31659 -0.19297,-0.24835 -0.84482,-0.48816 -0.122,0.31073 0.50029,0.48325 -0.39491,0.0502 -1.01024,-1.125 -0.25007,0.16019 -0.10985,-0.0952 0.44351,-0.74499 -0.85793,-0.0799 -0.49153,-0.5087 -0.25096,0.1612 -0.31572,-0.18891 -0.25076,0.16114 -1.1754,-1.32688 -0.40764,0.0584 -0.54088,-0.69214 -0.36648,-0.1896 -1.1297,-1.15265 -0.2525,0.1615 -0.1023,-0.0868 0.20679,-0.65079 -0.53618,-0.74008 -0.29447,0.11404 0.18874,0.31866 -0.10107,0.10135 -1.14748,-0.6037 -0.81413,-1.14923 -0.24217,0.17453 -0.33298,-0.003 -0.11115,-0.29001 0.60443,-0.49799 -0.96637,-0.90316 -0.80152,-0.11109 0.40101,0.48596 -0.58673,0.0684 -0.58851,-0.75161 -0.86231,-0.70847 -0.25107,0.16116 -0.14978,-0.0945 -2.80017,-2.46738 -0.75447,-0.4533 -1.14726,-1.13144 -2.33715,-1.40296 -1.26986,-0.95202 -0.51003,-0.56559 0.18929,-0.31662 -0.1949,-0.24951 -2.01104,-1.07907 -0.74095,-0.98456 -0.25206,0.1612 -0.44688,-0.45139 -0.25279,0.16168 -0.73339,-0.66143 -1.38421,-0.76783 -1.4765,-1.50906 0.17515,-0.5762 -0.5366,-0.68668 0.0417,-2.2399 0.81116,-0.69458 -0.18225,-0.45355 0.54867,-0.74344 -0.54086,-0.62778 0.25733,-0.9588 -0.58069,-1.25134 0.003,-0.97629 0.2603,-0.62567 -0.24315,-0.63327 0.16331,-0.25769 -0.30478,-0.371 0.38486,-0.62595 -0.14715,-0.42596 -0.32056,0.19043 -0.10524,-0.0876 -0.0466,-0.95736 0.24849,-0.63501 -0.18971,-0.31696 0.18974,-0.31708 -0.50645,-0.63492 0.41337,0.0964 0.14663,-0.41223 -0.14763,-0.46964 -0.4291,-0.47278 -0.0471,-0.95926 0.0467,-0.9591 0.20656,-0.30872 -0.24354,-0.63385 0.24313,-0.6333 -0.16162,-0.25256 0.45134,-0.44669 -0.22084,-0.57025 0.0419,-0.95804 0.20653,-0.30868 -0.20653,-0.30866 -0.0419,-1.27496 0.2485,-0.63507 -0.18968,-0.31696 0.20659,-0.30862 0.0421,-0.63999 -0.60068,-6.36218 -0.9279,-7.25616 0.25569,-0.64673 -0.24353,-0.63388 0.20356,-0.30829 -0.1774,-0.58228 0.13136,-0.67346 0.36752,-0.43539 -0.11213,-0.31391 -0.31859,0.18866 -0.10346,-0.10266 0.52524,-1.24844 -0.51614,-0.64438 0.18971,-0.3172 -0.20656,-0.30862 -0.0416,-0.64099 0.2648,-0.6269 -0.005,-0.64965 -0.42498,0.10217 -0.11448,-0.29914 0.58197,-0.73089 -0.0378,-0.34769 -0.48542,0.4014 -0.0514,-0.39453 0.17439,-0.24155 -1.86822,-1.08539 -1.35872,-0.99176 -0.64281,0.20328 -0.62506,-0.52023 -0.57782,0.17563 -0.54019,-0.38416 -0.0932,0.066 -0.44703,-0.45007 -0.24423,0.17563 -0.33363,-4e-5 -0.39656,-0.34658 -2.58451,-1.025 -1.9943,-1.03488 -2.93949,-2.23419 -0.31738,0.18982 -1.11887,-0.9195 -1.63118,-0.82577 -0.73605,-0.66321 -0.3261,0.19721 -1.78501,-0.92057 -0.49112,-0.5162 -0.24252,0.17514 -0.3336,-3e-5 -0.62508,-0.52033 -0.32621,0.19733 -0.84348,-0.48755 -0.73197,-0.66061 -0.31735,0.18985 -0.40409,-0.33252 -2.34872,-1.0979 -1.35901,-0.9946 -0.84286,-0.0794 -0.59101,-0.75238 -0.40764,0.0583 -0.70292,-0.79428 -0.31598,0.18884 -0.70269,-0.79425 -0.24071,0.17438 -0.33353,3e-4 -0.30829,-0.20358 -0.31831,0.18949 0.0675,-0.34449 -2.75054,-1.46127 -1.05485,-0.89191 -0.43832,0.45356 -0.13317,-0.58674 -0.66623,-0.48748 -0.4114,0.14904 -1.68438,-1.29528 -2.66567,-1.41462 -0.82129,-0.80453 -1.37764,-0.76129 -0.49203,-0.63938 -0.24124,0.17737 -0.648913,-3.3e-4 -0.69468,-0.81092 -0.240211,0.17423 -0.342735,0.005 -2.747757,-1.14338 -2.297112,-1.2904 -0.326149,0.19714 -1.988007,-1.28253 -3.470794,-1.62003 -1.832924,-0.51586 -4.443626,0.0426 -1.508248,1.47739 -0.71141,1.01886 -0.880593,0.57373 -1.117828,1.62167 -1.636665,1.75815 -1.100945,0.73687 -0.160187,-0.10299 -0.403236,-0.40341 -1.028801,-2.30317 -1.903084,-6.31607 -5.165428,-13.78353 -2.033142,-4.79255 -0.833698,-3.15426 0.290351,-0.50832 0.751927,-0.54777 0.334617,-0.0343 0.624589,0.25744 0.642517,-0.20343 0.317024,0.18974 0.330276,-0.20293 6.629624,0.84921 0.648048,-0.26062 0.641022,0.0416 0.308708,0.2066 0.330338,-0.203 4.410499,0.53319 0.343788,-0.21635 5.086266,0.51287 3.587845,0.54314 6.028412,1.26886 3.264892,1.00919 1.252968,0.64535 0.211304,0.24167 0.0036,0.65854 -0.49263,0.82776 -2.05951,1.44195 -3.182663,3.18192 -0.892692,2.07666 -0.572899,2.27954 0.554565,1.92697 1.209877,2.09369 3.824799,3.82483 3.696491,1.46255 0.85701,0.0748 1.17569,1.20331 1.68133,0.0658 0.57652,0.44873 0.16699,-0.10114 0.17973,0.29508 0.76053,0.53527 0.32535,-0.19656 0.73252,0.9762 1.16759,0.54266 2.21192,1.53049 0.64393,-0.51395 -0.0955,0.41107 0.10217,0.15982 1.15233,0.659 0.49057,0.51636 0.56912,-0.47849 -0.096,0.41178 0.25965,0.31762 0.99505,0.19116 0.49076,0.50882 0.56922,-0.47848 -0.11548,0.61487 0.59736,0.42065 6.64723,3.49552 2.8435,1.26608 2.15928,1.21121 4.17882,1.95908 6.3719,4.12729 6.39789,2.58837 1.65392,1.0015 0.64265,-0.20328 0.3083,0.20352 0.33354,-5.1e-4 1.03736,-1.37519 -0.1604,-0.2492 1.57132,-1.42347 0.546,-1.1701 0.86936,-1.18021 2.71742,-3.05102 0.76782,-1.38422 1.76657,-1.78323 2.35498,-3.29004 1.13877,-0.83811 0.52908,-0.83615 2.31621,-2.64258 0.45332,-0.75442 1.41013,-1.2233 0.60615,-0.97711 0.70708,-0.53918 0.49261,-0.8274 0.0756,-0.53534 3.36255,-2.40167 -0.18843,-0.42227 1.45526,-0.84467 -0.13132,-0.18573 0.3897,-0.5339 -0.009,-0.25952 0.25379,0.16144 0.4469,-0.45139 0.2536,0.1615 0.88826,-0.83395 0.78979,-1.16211 -0.50651,-0.63501 0.41177,0.0961 0.1499,-0.095 0.26177,-0.31671 -0.18953,-0.31836 0.34456,0.0676 1.02896,-1.50177 1.49521,-0.78958 -0.24556,-0.45618 0.32399,-0.32922 0.31686,-0.25385 0.30798,0.2034 0.34334,0.004 0.73174,-0.54684 -0.11405,-0.29453 -0.3193,0.18924 -0.0934,-0.0935 0.61259,-0.50009 0.53868,-0.70786 2.01468,-1.39703 2.31703,-2.31384 0.18403,-0.35798 1.4757,-0.97393 1.82663,-0.5188 1.92635,0.5542 1.77882,1.21115 1.1473,1.13138 0.83546,0.49997 1.61017,-0.22605 0.40355,0.42807 -0.18915,0.31641 0.18217,0.23819 1.88497,0.97098 3.34058,1.1 3.013,1.43909 1.8771,0.64651 1.51193,0.46567 0.31951,-0.21411 0.34358,-0.004 0.9243,0.53237 0.32622,-0.19726 1.0489,0.97757 1.16942,0.79687 0.30887,-0.20654 0.9679,0.003 0.0998,0.43418 -0.20381,0.31 0.0876,0.10531 0.81938,0.0252 0.5345,-0.82831 0.62308,0.76215 0.34416,-0.38294 -0.18949,-0.31839 0.0935,-0.0934 0.89082,0.76166 -0.15575,0.20346 0.8322,0.51126 0.43079,-0.11209 -0.20386,-0.30997 0.0995,-0.43182 0.64299,0.20099 0.31824,-0.18952 -0.001,0.24527 -0.412,0.48483 0.0876,0.10547 0.96677,0.004 0.63617,-0.53254 1.06178,0.56647 -0.12071,0.26599 -0.30946,-0.20608 -0.97574,-0.002 0.73155,0.37418 5.62612,1.47806 0.69709,-0.0846 -1.54748,-0.76959 -0.1962,-0.25147 0.1004,-0.10064 1.80851,0.81585 3.15777,1.88968 1.29781,1.61487 0.55879,1.02377 1.40283,0.8909 0.65041,3.4e-4 0.30893,-0.20642 0.63379,0.50668 0.73211,-0.66061 2.97304,-2.03806 0.91399,-1.08346 0.85527,-0.66986 1.08346,-0.46622 0.52342,-0.82239 1.70591,-0.77267 0.82154,-0.80454 1.38471,-0.76831 1.77141,-1.43811 1.01297,-0.52264 1.63684,-1.32328 0.53064,-0.69967 1.08261,-0.46652 0.1817,-0.23734 -0.18889,-0.3175 0.0933,-0.0933 0.31828,0.18943 0.30786,-0.2063 0.52666,-0.0788 1.40085,-1.62204 0.45366,0.22717 0.57907,-0.88162 1.70532,-0.77936 0.50162,-0.7951 2.13156,-1.4419 0.31735,0.18982 0.15042,-0.095 0.58326,-0.56668 1.23407,-0.76797 -0.16044,-0.2518 0.0929,-0.0928 0.31851,0.18952 1.1694,-0.79699 0.81943,-0.80332 1.71228,-0.77924 3.48831,-2.21962 2.1001,-1.7666 0.93918,-0.62187 1.7128,-0.77965 0.51758,-0.50015 0.8352,-0.49811 0.65149,0.20781 0.80939,-0.90508 0.84735,-0.39573 1.50082,-0.48432 0.33057,0.20072 0.10284,-0.0873 -0.19927,-0.64307 0.41116,0.0957 0.15915,-0.10199 0.37539,-0.65135 1.1373,-3.6993 0.96622,-2.289 -0.1969,-0.32577 0.21008,-0.52553 -0.4989,-0.49149 0.17816,-0.24328 0.003,-0.65843 -1.16986,-2.82456 0.19922,-0.32789 -0.18982,-0.31701 0.18979,-0.31694 -0.2092,-0.65263 0.52725,-1.17859 1.43134,-0.49624 0.69186,-0.93639 0.30771,0.20312 0.64267,-0.20353 0.30817,0.20343 0.33395,-0.003 0.16425,-0.27787 1.0845,-0.56604 0.32791,0.19909 0.63361,-0.50676 0.32888,0.20041 1.49237,-0.50749 0.48493,-0.46951 1.71185,-0.77876 0.41922,-0.34629 0.31824,0.18959 1.43301,-1.36241 0.46778,0.0948 1.26751,-1.14063 0.32877,0.20031 1.31778,-0.50786 -0.15576,-0.23349 0.0922,-0.0922 0.25235,0.16104 0.49173,-0.49899 0.45734,0.18126 0.70529,-0.81505 0.68902,0.50091 0.13215,-0.58658 0.70095,-0.51542 0.58936,0.52475 0.73517,-0.55815 0.31106,0.22433 0.63395,-0.21725 0.6427,0.20347 0.63357,-0.50665 0.30887,0.20662 0.64099,0.0416 0.6351,-0.2482 0.32868,0.20038 1.56118,-0.528 0.32883,0.20045 0.95059,-0.82368 0.318,0.18934 0.17178,-0.26702 3.08408,-1.64922 m -14.34311,4.58224 v 0 l -0.008,0.18804 m -4.11203,1.71376 v 0 l -0.008,0.18796 m -0.30856,0.1289 v 0 l -0.008,0.18805 m -0.30851,0.12891 v 0 l -0.008,0.18803 m -3.16113,1.39673 v 0 l -0.008,0.18804 m 24.41366,2.98147 v 0 l -0.008,0.18804 m -2.52722,3.29843 v 0 l -0.008,0.18795 m -0.30863,0.44599 v 0 l -0.008,0.18796 m -3.16116,4.88319 v 0 l -0.008,0.188 m -0.30853,0.44594 v 0 l -0.008,0.18796 m -0.62399,1.08012 v 0 l -0.11362,0.4152 0.10532,0.0893 0.10507,-0.42239 m -7.38819,1.18541 v 0 l -0.008,0.18798 m -0.30859,0.44596 v 0 l -0.008,0.18795 m -0.62543,1.07985 v 0 l -0.008,0.18804 m 6.03045,1.39671 v 0 l -0.008,0.18804 m -29.46808,0.76286 v 0 l -0.008,0.18796 m -0.29434,0.11247 v 0 l -0.66272,-4.6e-4 -0.0965,0.43332 0.19995,0.0457 m 29.38767,-0.14513 v 0 l -0.008,0.18804 m -0.307,0.12915 v 0 l -0.11368,0.41522 0.10538,0.0893 m -14.57306,0.44607 v 0 l -0.008,0.188 m 0.32537,0.129 v 0 l -0.008,0.18803 m -20.9104,2.03062 v 0 l -0.008,0.18804 m 32.42267,3.38359 v 0 l -0.18799,0.008 m -0.44596,1.25939 v 0 l -0.18795,0.008 m -26.83811,0.8573 v 0 l -0.008,0.18805 m -1.89334,0.76285 v 0 l -0.008,0.18795 m 20.06149,0.21408 v 0 l -0.18802,0.008 m -20.18207,-0.0936 v 0 l -0.008,0.18799 m -13.62048,-0.18799 v 0 l -0.008,0.18799 m -63.61368,0.21414 v 0 l -0.18801,0.008 m -0.848,0.22339 v 0 l -0.008,0.18796 m 2.22322,0.43256 v 0 l -0.0123,0.21301 0.73902,-0.10758 m 98.25095,0.30857 v 0 l -0.41525,0.11358 -0.0893,-0.10534 0.42237,-0.10517 m -96.90476,0.0984 v 0 l -0.18802,0.008 m 56.83716,1.17432 v 0 l -0.008,0.18796 M 85.750965,264.1188 v 0 l -0.0084,0.18802 m 176.550395,0.12897 v 0 l -0.008,0.18805 m -0.62552,0.1289 v 0 l -0.008,0.18796 m -83.77422,-0.10879 v 0 l 0.0995,0.42645 0.10538,-0.4213 m 32.31671,1.58564 v 0 l -0.18797,0.008 m -33.81749,-0.11029 v 0 l -0.42556,0.41726 0.10653,0.42066 0.73072,-0.73068 m -86.932931,0.54345 v 0 l -0.0084,0.18796 m 98.745881,0.21533 v 0 l -1.12315,1.05143 -0.31734,-0.18982 -2.21747,1.45706 -0.24009,-0.15784 -0.47261,0.76093 -0.24166,-0.15824 -0.10214,0.0868 0.19927,0.64313 -0.4126,-0.0959 -0.88883,0.83432 -1.08,1.69779 -1.68294,1.68292 -0.46769,-0.0948 -0.3167,0.26166 0.0555,0.56061 -1.70133,2.33606 -0.79162,0.49109 -1.78127,1.76538 -1.69099,1.20328 -0.81339,1.30038 -0.81575,0.8324 -0.44598,0.74649 -0.88114,0.57419 -0.57455,0.5809 -0.53632,0.84381 -0.97193,0.81567 -0.61127,1.08435 -1.68389,1.69349 -2.6725,3.60678 -0.44906,0.28024 -0.99999,1.18619 -1.44929,2.10089 -0.0758,0.53543 -0.70166,0.54037 -0.44478,0.59116 -0.17894,-0.12927 -1.2699,1.43274 -0.76785,1.38418 -0.67806,0.72513 -0.0803,0.5351 -0.50924,0.49139 0.16097,0.2522 -0.33142,-0.0648 -0.50086,1.00314 0.19883,0.32895 -0.33184,-0.0643 -0.50879,1.01746 0.5366,3.15277 -0.21196,0.34091 0.52565,1.24615 -0.21608,0.31946 -0.0464,0.64215 0.005,1.58365 0.2485,0.63526 -0.50663,0.63354 0.20356,0.30847 -9e-5,0.33417 -0.21724,0.29977 -1.2e-4,0.33423 0.20358,0.30829 -0.19722,0.32608 0.52887,0.94507 -0.53605,1.57809 0.52884,0.94507 -0.21408,0.31775 -0.0419,1.59195 0.15286,0.4708 0.41266,0.48101 -0.20041,0.32889 0.52794,1.56122 -0.25883,0.64688 0.0416,0.64096 0.20651,0.30866 -0.24383,0.63296 0.58195,2.83356 -0.27407,1.28772 0.0465,0.95917 0.22019,0.30007 -0.2173,0.96814 0.20357,0.30826 -0.18971,0.31699 0.20337,0.30786 0.002,0.34122 -0.53924,-0.34711 -0.0418,1.28168 0.24828,0.63629 -0.51616,-0.009 0.1039,0.47736 0.42906,0.47308 0.0425,0.95728 -0.0807,0.38305 -0.46324,-1.07922 -0.0807,0.38309 0.0314,2.12039 0.35299,0.41394 -0.34139,0.63284 0.42896,-0.0942 0.11039,0.0957 -0.51739,0.68832 0.49476,1.59027 0.23015,-0.15497 0.0926,0.0927 -0.20337,0.30963 1.2e-4,0.3342 0.21702,0.29928 0.002,0.34119 -0.48448,-0.40128 -0.0966,0.38785 0.0423,1.27441 0.53453,0.63767 -0.52916,1.87887 0.33625,0.12107 0.29178,-0.26438 0.53401,1.09336 -0.22042,0.53711 0.43868,0.57531 -0.15518,0.48383 0.14741,0.46915 0.70288,0.8648 0.56736,-0.47772 -0.12659,0.92905 0.75043,0.53552 0.31718,-0.21072 0.33354,0.004 -0.10258,0.42261 0.0955,0.11627 0.73198,0.76545 0.91496,0.46444 -0.17883,0.4375 0.73272,0.54853 0.33399,0.0343 0.386,-0.0917 -0.45523,-0.43121 0.58664,-0.0684 0.53523,0.75256 -0.52335,-0.001 0.0958,0.43329 0.65083,0.003 0.30823,-0.20597 0.15965,0.10211 0.85868,1.47678 0.66514,0.66599 0.93222,0.61593 2.20255,0.79736 -0.47479,0.55591 0.19293,0.24857 0.83464,0.50067 0.53534,0.0756 1.06694,1.1724 0.30847,-0.20343 0.33351,0.004 -0.0159,0.52622 0.64201,-0.19947 0.1499,0.0949 0.26174,0.31666 -0.18972,0.31729 0.26175,0.31674 0.45833,-0.10864 0.47814,0.10797 0.73025,0.73297 0.48421,0.78454 0.91469,0.46466 -0.15734,0.23819 0.41111,0.41083 0.30787,-0.2034 0.34503,-0.006 1.16185,0.51062 0.92185,0.73635 0.84826,1.0178 0.84386,0.53631 1.34255,1.18512 -0.1599,0.24854 0.19453,0.24902 7.40595,4.57208 0.51211,0.56678 -0.19007,0.31893 0.0873,0.10285 0.64308,-0.19922 -0.0957,0.41101 0.1022,0.15985 0.84463,0.54331 0.28025,0.44906 1.17367,0.98856 2.75647,1.77457 1.28446,1.8e-4 0.30003,-0.22022 0.6436,0.20331 1.51801,-1.42944 0.69735,0.49914 0.38654,-0.36798 -0.39945,-0.49157 0.974,0.21859 0.69445,-0.80804 0.24963,0.15988 0.16495,-0.25076 1.33763,-0.56147 0.49818,-0.48254 5.42941,-3.34027 0.90903,-0.77948 2.65277,-1.40247 1.46614,-1.44952 0.93912,-0.62186 1.90268,-0.95138 2.0332,-0.77024 1.67365,-0.99655 0.32625,0.19727 0.14991,-0.095 0.26175,-0.31668 -0.1895,-0.31842 0.0934,-0.0934 0.32718,0.19681 0.74003,-0.53622 -0.11409,-0.29444 -0.30887,0.2031 -0.3941,-0.0489 0.69315,-0.47852 0.32592,0.19693 0.14994,-0.095 0.26173,-0.31668 -0.18953,-0.31842 0.0929,-0.0929 0.25029,0.16019 0.49103,-0.63867 0.83641,-0.52939 1.69177,-1.68234 0.75446,-0.45328 1.78126,-1.76541 0.74657,-0.44599 0.49101,-0.79162 2.24877,-2.24878 2.33716,-1.40296 1.2698,-0.95202 0.84696,-1.1825 -0.003,-0.97628 -0.20654,-0.30869 0.20339,-0.30829 -0.004,-0.33356 -0.51619,0.009 0.1895,-0.3183 -0.1895,-0.31823 0.41264,0.096 0.11064,-0.0959 -0.54466,-0.74527 0.52199,-2.05072 -0.52147,-0.68674 0.22409,-0.31079 -0.20344,-0.64261 0.24847,-0.63495 -2.8e-4,-4.75201 -0.15158,-0.41333 -0.32002,0.18982 -0.0934,-0.0935 0.52005,-0.62631 v -0.33435 l -0.53678,-0.61685 -0.0423,-0.32645 0.26945,-1.91913 -0.5121,-1.16208 -0.30504,-0.3399 0.39183,-0.52671 -0.43283,-0.47964 0.20284,-0.64197 -0.16126,-0.25116 0.49533,-0.69931 -0.43028,0.0942 -0.15156,-0.4133 0.0418,-1.59186 0.26031,-0.62567 -0.24359,-0.63391 0.20034,-0.32871 -0.52791,-1.56121 0.20039,-0.32871 -0.18977,-0.31699 0.18977,-0.31707 -0.5067,-0.63379 0.50667,-0.63388 -0.50665,-0.63373 0.2064,-0.3089 v -0.6503 l -0.20642,-0.30878 0.20111,-0.32922 -0.53331,-1.88534 0.52938,-0.94584 -0.25104,-0.64303 0.25494,-0.64612 -0.57692,-2.20856 0.0421,-0.64004 0.26525,-0.62665 -0.042,-0.95816 -0.20656,-0.30866 0.20035,-0.3287 -0.52794,-1.56119 0.20972,-0.33944 -0.84357,-2.5131 0.25449,-0.64471 -0.93697,-4.75733 0.0423,-1.27404 0.21845,-0.32126 -0.53046,-2.19342 0.20168,-0.32956 -0.18979,-0.31702 0.18976,-0.31705 -0.52306,-0.62548 -3.5e-4,-0.65042 0.20645,-0.30893 -0.3188,-0.38654 -0.52608,-2.76276 0.22222,-0.66607 -1.16347,-6.31378 0.17378,-0.26511 -0.45137,-0.44659 0.22079,-0.57032 v -1.26556 l -0.16099,-0.47894 -5.26418,-2.87436 -1.16571,-1.33393 -2.12025,-1.43084 -0.32585,0.19677 -0.60642,-0.29657 -3.73402,-0.94159 -6.49851,-1.18164 -1.74318,-0.6145 -2.23994,-1.35959 -3.22482,-0.8833 -0.33846,0.20844 -1.24562,-0.52542 -0.26335,0.17141 -0.53359,-0.39096 -0.31509,0.007 -0.25439,-0.23807 -1.57479,-0.65784 -4.82162,-1.6413 -4.91715,-2.00546 m 68.45897,0.3291 v 0 l -0.32242,0.25898 -0.009,0.25521 0.43075,-0.0954 m -81.55546,-0.41819 v 0 l -0.008,0.18805 m 37.49382,0.21411 v 0 l -0.18797,0.008 m -1.16923,-0.10434 v 0 l -0.0123,0.2081 0.42233,-0.10526 m -36.86903,0.092 v 0 l 0.008,-0.18799 m -85.569951,0.32114 v 0 l -0.113671,0.41516 0.105339,0.0893 0.105133,-0.42237 m 125.08367,0.10172 v 0 l 0.008,-0.18799 m -39.84534,0.10284 v 0 l -0.18799,-0.008 m -0.21413,0.22647 v 0 l -0.008,0.18796 m 81.15394,0.12045 v 0 l -0.42643,0.0996 0.42124,0.10538 m -62.12326,-0.19651 v 0 l -0.008,0.18802 m 61.50303,0.12052 v 0 l -0.42648,0.0995 0.42129,0.10537 m -34.56236,-0.19647 v 0 l 0.008,0.18805 m 33.91921,0.12891 v 0 l -0.008,0.18795 m -32.01066,-0.21353 v 0 l 0.70199,0.49442 -0.38473,0.0891 -1.33319,-0.53504 m -131.462778,-0.0229 v 0 l -0.0084,0.18795 m 82.732748,-0.004 v 0 l -0.008,-0.18799 m 10.13704,1.45575 v 0 l 0.008,-0.18796 m -109.659804,0.32083 v 0 l -0.0084,0.18796 m 109.441814,-0.089 v 0 l -0.18799,-0.008 m -108.928446,0.22638 v 0 l -0.0084,0.18799 m 177.818196,0.12903 v 0 l -0.008,0.18795 m -25.02859,-0.24191 v 0 l -0.42289,0.14462 0.73825,0.10819 -9.4e-4,-0.21423 m -54.51524,0.0154 v 0 l -0.008,0.18795 m 54.84103,0.12891 v 0 l -0.008,0.18802 m 0.32539,0.12897 v 0 l -0.008,0.18802 m 22.51195,0.12893 v 0 l -0.008,0.18796 m -21.54424,-0.18796 v 0 l -0.008,0.18796 m -46.99942,-0.10278 v 0 l 0.18799,0.008 m -10.33041,-0.008 v 0 l 0.18797,0.008 m -86.616773,-0.0936 v 0 l -0.0084,0.18796 m 164.823193,0.12897 v 0 l -0.008,0.18799 m -69.50297,-9.92826 v 0 l 0.18799,0.008 m 0.44592,10.13407 v 0 l 0.18799,0.008 m 48.08761,0.2233 v 0 l -0.008,0.18802 m -48.90082,0.21258 v 0 l 0.41521,0.11368 0.0893,-0.10538 -0.42233,-0.1051 m -99.506211,0.0132 v 0 l -0.0084,0.18802 m 167.681781,0.12049 v 0 l -0.42653,0.0995 0.42128,0.10544 m -19.01784,-0.19647 v 0 l -0.008,0.18796 m -49.43599,-0.18796 v 0 l -0.008,0.18796 m 50.09271,0.12054 v 0 l -0.42645,0.0996 0.42126,0.10538 m -38.99989,-0.25327 v 0 l 0.70699,0.53269 0.24342,-0.17841 0.96606,0.005 -0.0155,0.52853 0.84636,-0.22082 0.54097,0.55886 0.53119,-0.0147 0.51663,-0.2262 0.5755,0.43863 0.49239,-0.11496 0.94203,0.83719 0.30846,-0.20343 0.33354,0.003 0.15423,0.25268 2.57657,0.86481 1.23094,0.88132 1.17942,0.58474 4.59012,1.69797 2.31854,1.11798 3.06955,1.12546 6.95894,3.7908 1.2241,1.37247 1.9767,1.19376 0.81764,1.78637 -0.003,0.65845 -0.1786,0.24469 0.45131,0.44644 -0.22049,0.57031 0.0416,0.64106 0.20651,0.30865 -0.24849,0.63504 0.0362,1.92044 0.53909,3.35376 2.04288,10.15341 0.81242,5.47705 -0.21452,0.34281 0.84636,3.7789 -0.21387,0.31927 -0.006,0.34574 1.17208,4.40561 -0.21251,0.34155 0.52942,1.87714 -0.21473,0.31988 -0.006,0.34509 0.54552,1.23017 -0.22588,0.6445 -0.042,0.95794 0.24843,0.63501 -0.20353,0.30832 0.20359,0.64255 -0.19721,0.32605 0.53404,0.92462 0.0342,0.33478 -0.25749,0.6246 0.20346,0.64249 -0.18976,0.31696 0.18979,0.31695 -0.18973,0.31714 0.50661,0.63358 -0.20658,0.30883 0.003,0.96796 0.43422,0.0998 0.30877,-0.2026 0.10347,0.10269 -0.5253,1.24844 0.51597,0.64569 -0.4134,-0.0964 -0.10649,0.4209 0.53345,0.61605 0.002,0.34131 -0.53928,-0.3471 -0.0421,2.54855 0.55644,1.64844 0.23348,-0.15567 0.0926,0.0927 -0.20624,0.31006 -0.005,0.66128 0.58712,1.88468 -0.0378,0.65039 -0.54866,1.23019 -0.0744,0.53665 -1.81175,1.63404 -1.38423,0.76782 -1.54354,1.414 -2.45991,1.62112 -1.58707,0.95234 -1.71223,0.7792 -0.81949,0.80332 -1.88971,1.25576 -1.09452,0.4766 -1.29025,1.57135 -0.43944,-0.45081 -1.27664,1.4025 0.16043,0.24994 -0.17437,0.23092 -1.82317,0.55683 -0.64012,-0.0421 -0.30042,-0.2232 -0.96745,2.1e-4 -1.66353,1.29981 -1.2668,0.63272 -4.59065,1.7232 -2.76184,1.33631 -0.88837,0.74423 -1.50052,0.55087 -0.64903,-0.0389 -1.79719,-0.82797 -3.99096,-3.02307 -3.28665,-1.71943 -1.57702,-1.06683 -0.49105,-0.51709 -0.25189,0.16101 -1.68133,-1.61087 -0.84331,-0.53589 -0.80087,-1.10922 -0.47645,0.087 -0.4987,-0.61252 -0.7514,-0.54767 -0.54355,-0.0769 -0.4919,-0.50766 -0.17135,0.12725 -0.55268,-0.69781 -0.54201,-0.38107 -0.18263,0.13061 -0.70279,-0.79254 -0.24988,0.16019 -0.76832,-1.08326 -0.25137,0.16047 -1.20197,-1.11252 -0.43832,0.45346 -0.13367,-0.90363 -1.06822,-0.8587 -0.64212,0.20282 -0.73265,-0.97617 -1.79459,-0.80508 -0.32712,0.19675 0.0957,-0.41108 -0.10214,-0.15966 -1.19912,-0.65986 -2.27707,-0.60467 -1.18325,-0.55737 -0.39532,-0.34592 -0.4209,0.10651 0.18982,0.32009 -0.24524,-0.002 -0.86874,-1.0166 -0.25026,0.16018 -0.0928,-0.0929 0.20334,-0.3096 -2.9e-4,-0.33432 -0.62607,-0.49024 -0.53505,-0.76214 0.32613,0.0534 0.51664,-2.26602 -0.21579,-0.32104 0.21736,-0.63398 -0.2034,-0.64257 0.2035,-0.30826 -1e-4,-0.33423 -0.26226,-0.62637 -0.005,-1.90067 0.0467,-0.95917 0.2202,-0.32214 -0.53396,-6.31189 0.21699,-0.34409 -0.89644,-9.81411 0.0423,-1.59091 0.21408,-0.31775 -0.53412,-0.92456 0.003,-0.97635 0.21719,-0.32038 -0.53893,-1.55383 -0.0369,-0.65185 0.24823,-0.63517 -0.18971,-0.31695 0.20357,-0.30823 -0.17548,-0.57632 0.49896,-0.49161 -0.22386,-0.51679 0.20343,-0.64267 -0.20652,-0.30862 -0.0417,-0.64108 0.24825,-0.63507 -0.19722,-0.32602 0.5323,-0.92426 -0.26634,-0.96948 0.0416,-0.64102 0.2066,-0.30875 -0.20039,-0.32874 1.77641,-4.97973 1.36364,-2.18228 0.70791,-0.53876 0.5291,-0.83624 3.33548,-3.34171 0.18181,-0.35455 0.70897,-0.53922 1.7056,-2.32336 0.82144,-0.52136 0.59984,-1.02567 1.69647,-2.21158 1.6732,-1.34988 1.70569,-1.0882 0.28023,-0.44912 1.49066,-1.30552 2.64886,-1.84515 0.53867,-0.70792 0.83629,-0.52911 1.43997,-1.43368 0.35438,-0.18174 0.58437,-0.76043 1.49947,-1.34491 -0.1604,-0.24924 0.2613,-0.31607 0.46724,0.0948 0.31664,-0.26172 -0.0942,-0.46637 0.18157,-0.23715 1.16196,-0.51331 m 57.71067,0.34082 v 0 l -0.008,0.18796 m -0.94088,-0.18772 v 0 l -0.11369,0.41526 0.10529,0.0892 0.10522,-0.42236 m -57.78358,0.23453 v 0 l -0.008,0.18798 M 73.079665,275.21055 v 0 l -0.0084,0.18798 m 159.520145,0.21411 v 0 l -0.18797,0.008 m -53.3768,0.005 v 0 l -0.188,-0.009 m -0.21254,0.22665 v 0 l -0.11365,0.41525 0.10533,0.0893 0.10515,-0.42237 M 73.3982,275.84337 v 0 l -0.11367,0.41525 0.105331,0.0893 0.105164,-0.4224 m 159.645185,0.23456 v 0 l -0.008,0.18802 m -44.99871,-0.18802 v 0 l -0.008,0.18802 m -9.91606,0.21411 v 0 l 0.18797,0.008 m -0.50491,0.30851 v 0 l 0.188,0.008 m 65.83686,0.22342 v 0 l -0.008,0.18802 m -56.40903,-0.18802 v 0 l -0.008,0.18802 m -9.81702,-0.18802 v 0 l -0.008,0.18802 m 65.61742,0.12893 v 0 l -0.008,0.18796 m -0.30854,0.12897 v 0 l -0.008,0.18802 m -56.09192,-0.18802 v 0 l -0.008,0.18802 m -10.13402,0.129 v 0 l -0.008,0.18795 m 64.66655,0.4459 v 0 l -0.009,0.18801 m -134.69589,-0.18801 v 0 l -0.008,0.18801 m 78.61242,0.4459 v 0 l -0.008,0.18799 m 55.877,0.21414 v 0 l -0.18796,0.008 m -55.99759,-0.0936 v 0 l -0.008,0.18796 m -10.13405,-0.18796 v 0 l -0.008,0.18796 m -0.30852,0.12894 v 0 l -0.008,0.18799 m -0.40748,0.21411 v 0 l 0.18799,0.008 m -77.425182,-0.0936 v 0 l -0.0084,0.18802 m 77.013812,0.31305 v 0 l 0.008,-0.18796 m -0.62851,0.32077 v 0 l -0.008,0.18802 m -60.1272,0.53104 v 0 l -0.18799,0.008 m -13.209118,-0.0936 v 0 l -0.0084,0.18798 m 72.808298,0.21411 v 0 l 0.18799,0.008 m -0.72291,0.54031 v 0 l -0.008,0.18802 m -9.81709,-0.18802 v 0 l -0.008,0.18802 m -45.23049,1.16498 v 0 l -0.188,0.008 m 54.38672,0.32236 v 0 l -0.18801,-0.008 m -1.79884,1.49417 v 0 l -0.008,0.18802 m -47.76611,0.21411 v 0 l -0.18798,0.008 m 47.7307,0.005 v 0 l -0.18798,-0.008 m -1.1634,1.49444 v 0 l -0.11366,0.41523 0.10532,0.0893 0.10518,-0.42236 m -0.83103,0.6351 v 0 l 0.41521,0.11368 0.0893,-0.10538 -0.42236,-0.1051 m 71.41582,0.73227 v 0 l -0.18801,0.008 m -71.84512,0.22345 v 0 l -0.008,0.18796 m -1.57631,1.71368 v 0 l -0.008,0.18799 m -0.62549,0.44595 v 0 l -0.008,0.18796 m -44.9987,0.44598 v 0 l -0.008,0.18796 m 43.96572,0.53104 v 0 l 0.18799,0.008 m -42.87746,-0.0936 v 0 l -0.008,0.18799 m 118.23135,0.44589 v 0 l -0.008,0.18802 m -61.57913,0.53104 v 0 l 0.18797,0.008 m -10.86534,3.70987 v 0 l -0.008,0.18799 m -21.86122,0.76285 v 0 l -0.008,0.18799 m 0.54335,0.21411 v 0 l 0.18796,0.008 m 0.86183,0.22336 v 0 l -0.008,0.18799 m 1.27621,0.12893 v 0 l -0.008,0.18802 m 92.2413,1.71372 v 0 l -0.008,0.18802 m 0.32533,1.71368 v 0 l -0.008,0.18799 m -84.63152,1.71374 v 0 l 0.008,0.18799 m -0.008,0.44589 v 0 l 0.008,0.18802 m 0.4075,1.48191 v 0 l -0.18799,0.008 m -8.45485,1.80817 v 0 l -0.008,0.18795 m 93.82605,0.12894 v 0 l -0.008,0.18802 m -93.80924,0.12897 v 0 l -0.008,0.18798 m 94.04402,0.848 v 0 l 0.188,0.008 m -85.26382,0.62549 v 0 l -0.18798,0.008 m 5.5897,2.53708 v 0 l -0.2132,-0.0124 -0.0455,0.32773 0.15317,0.72836 0.15295,-0.41376 m -5.75543,-0.0132 v 0 l -0.10277,0.74386 -0.10673,-0.73699 m 86.31074,0.54916 v 0 l 0.008,0.18802 m -0.31001,0.76309 v 0 l -0.11368,0.41528 0.10538,0.0893 0.10516,-0.42237 m -79.97014,-0.0824 v 0 l -0.008,0.18798 m 0.01,0.4462 v 0 l -0.15622,0.40637 0.14772,0.41516 0.14816,-0.41259 m -6.81105,-0.54206 v 0 l 0.008,-0.18798 m -6.96753,4.12423 v 0 l -0.008,0.18799 m 0.01,0.44623 v 0 l -0.11367,0.41516 0.10533,0.0893 0.10518,-0.42233 m 0.2201,1.50263 v 0 l -0.11366,0.41519 0.10535,0.0893 0.10516,-0.42236 m -0.0984,-0.71631 v 0 l -0.008,0.18796 m 0.32535,4.88327 v 0 l -0.008,0.18799 m 86.85315,1.39676 v 0 l -0.008,0.18798 m -88.20308,0.22794 v 0 l 0.18801,-0.008 m 8.46867,2.12808 v 0 l -0.008,0.18796 m -9.40648,-20.7106 v 0 l -0.0995,0.42645 -0.10542,-0.42127 m 89.17624,20.83466 v 0 l -0.11363,0.41522 0.10536,0.0893 0.10513,-0.42237 m -10.5578,-0.0824 v 0 l -0.008,0.18795 m 18.69468,0.129 v 0 l 0.008,0.18799 m -7.59976,0.4462 v 0 l -0.16629,0.72586 0.1578,0.72955 0.15783,-0.72977 m -11.02628,0.94394 v 0 l 0.18799,0.008 m 5.39279,0.30258 v 0 l -0.0996,0.42645 -0.10541,-0.42126 m 1.0484,-60.30512 v 0 l 0.008,0.18796 m 3.80885,60.5339 v 0 l -0.008,-0.18802 m -87.4686,0.32111 v 0 l -0.15623,0.4064 0.14774,0.4151 0.14814,-0.41259 m 88.28824,-0.0923 v 0 l -0.008,0.18799 m 8.0173,0.53107 v 0 l -0.18796,0.008 m -96.25042,0.22342 v 0 l -0.008,0.18796 m 0.0936,1.81274 v 0 l -0.18799,-0.008 m 86.53163,-19.33948 v 0 l 0.188,0.008 m 1.07981,20.29032 v 0 l 0.18797,-0.008 m -4.84328,1.67832 v 0 l -0.008,-0.18796 m 0.0936,0.72287 v 0 l -0.18799,0.008 m 4.95289,1.25205 v 0 l -0.10273,0.74389 -0.10677,-0.73697 m 8.75656,0.31736 v 0 l -0.18796,0.008 m -87.92456,1.25934 v 0 l -0.18797,0.008 m 5.69821,0.001 v 0 l 0.20815,-0.0124 -0.10518,0.4224 m -14.67197,-14.66864 v 0 l 0.18801,-0.008 m 9.19847,16.16336 v 0 l -0.2081,0.0123 0.10513,-0.42236 m 79.23113,0.63757 v 0 l 0.008,0.18802 m 8.56469,0.44617 v 0 l -0.1137,0.41522 0.10532,0.0893 0.10519,-0.42237 m -80.70305,0.3197 v 0 l 0.18799,0.008 m 1.89784,1.57635 v 0 l -0.18798,0.008 m -9.08268,-0.10208 v 0 l -0.43626,0.0905 0.10469,0.42236 0.3183,-0.26196 m -8.14839,-0.15717 v 0 l -0.18799,0.008 m 95.17448,-20.06152 v 0 l 0.008,0.18799 m -75.66085,20.49899 v 0 l -0.18799,0.008 m -10.99046,-0.0936 v 0 l -0.008,0.18802 m 88.53153,0.20807 v 0 l -0.0996,0.42648 -0.10534,-0.4213 m -79.12656,-60.93899 v 0 l -0.008,0.18802 m 3.26309,61.06875 v 0 l -0.18798,0.008 m -12.57522,-0.0936 v 0 l -0.008,0.18799 m 88.84001,0.53106 v 0 l -0.188,0.008 m -72.57803,0.62542 v 0 l 0.18799,0.008 m -3.90627,-65.83536 v 0 l 0.008,-0.18796 m -0.22639,0.41983 v 0 l -0.18799,-0.009 m -19.54816,65.83539 v 0 l -0.008,0.18799 m 12.45468,0.53106 v 0 l -0.18799,0.008 m 83.46267,0.22369 v 0 l -0.15624,0.40628 0.14778,0.41516 0.14816,-0.41257 m -84.68217,-0.31021 v 0 l -0.188,-0.008 m 85.04742,1.17752 v 0 l -0.16103,0.40756 0.15258,0.73087 0.15301,-0.414 m -80.96878,0.86004 v 0 l -0.008,0.18796 m -13.93744,-0.18799 v 0 l -0.008,0.18799 m 15.30724,0.21411 v 0 l -0.188,0.008 m -0.84801,-0.0936 v 0 l -0.008,0.18799 m -12.98662,0.12896 v 0 l -0.008,0.18799 m 14.72449,0.21485 v 0 l 0.2693,0.32305 -0.0945,0.0946 -0.41254,-0.41254 m 78.38848,0.22592 v 0 l -0.008,0.18799 m -91.59058,-0.18799 v 0 l -0.008,0.18799 m 91.29046,0.12894 v 0 l -0.008,0.18802 m -90.63967,-0.18799 v 0 l -0.008,0.18799 m 65.61739,0.12894 v 0 l -0.008,0.18801 m -51.2526,-0.10284 v 0 l -0.18799,0.008 m -13.84302,-0.0936 v 0 l -0.008,0.18801 m 13.9543,0.76285 v 0 l -0.008,0.18799 m -12.35271,-0.18799 v 0 l -0.008,0.18799 m -0.62548,-0.18799 v 0 l -0.008,0.18799 m 1.27623,0.12897 v 0 l -0.008,0.18799 m 14.09274,0.21365 v 0 l 0.26776,0.32474 -0.43028,0.11224 -0.68474,-0.48944 0.38547,-0.0889 m 71.00951,0.36515 v 0 l -0.42639,0.0995 0.42123,0.10535 m -24.72298,0.12048 v 0 l -0.008,0.18802 m -59.26153,-0.18802 v 0 l -0.008,0.18802 m -0.30855,0.12894 v 0 l -0.008,0.18802 m 14.99033,0.21411 v 0 l -0.18801,0.008 m 66.9796,0.22339 v 0 l -0.008,0.18796 m -22.72701,0.21408 v 0 l -0.18796,0.008 m -57.26539,-0.0935 v 0 l -0.008,0.18798 m 0.96661,0.11676 v 0 l -0.42721,0.10157 0.40431,0.42791 0.33353,-0.004 -0.008,-0.25476 m 54.84698,0.0474 v 0 l -0.64524,-0.05 -0.41574,0.15271 0.72857,0.15307 0.41501,-0.15435 m -41.61059,-0.0908 v 0 l -0.008,0.18799 m 39.95027,0.12048 v 0 l -0.42645,0.0996 0.42125,0.10537 m -51.98079,0.43744 v 0 l -0.008,0.18802 m 0.6496,0.11676 v 0 l -0.42719,0.10157 0.73159,0.73184 0.10664,-0.42093 m 12.02794,-0.30133 v 0 l -0.18799,-0.008 m 62.9444,0.62851 v 0 l -0.188,0.008 m -74.38076,0.22336 v 0 l -0.008,0.18798 m 13.40527,0.22953 v 0 l -0.41523,-0.11371 -0.0893,0.10535 0.42238,0.10513 m -12.04537,0.11987 v 0 l -0.11366,0.41519 0.10536,0.0893 0.10515,-0.42237 m 12.34784,0.0166 v 0 l -0.18797,-0.008 m -11.30741,0.86029 v 0 l -0.008,0.18799 m 0.64247,0.12995 v 0 l -0.11372,0.41571 0.43154,0.0969 -0.008,-0.25455 m -3.79645,-70.62225 v 0 l -0.008,0.18802 m 4.44578,70.80911 v 0 l -0.008,0.18799 m 65.61742,0.44589 v 0 l -0.008,0.18802 m -63.61369,1.79883 v 0 l -0.18798,0.008 m 1.68759,0.22339 v 0 l -0.008,0.18802 m 45.86742,0.53106 v 0 l 0.18799,0.008 m -45.40567,-0.10361 v 0 l -0.4273,0.0994 0.41463,0.41488 0.10468,-0.42236 m 0.54043,0.54355 v 0 l -0.42642,0.0995 0.42122,0.1054 m 1.26709,0.43744 v 0 l -0.008,0.18799 m 0.85164,0.52496 v 0 l 0.0989,0.48096 0.31008,0.27426 0.33354,-0.004 -0.16693,-0.42166 -0.47753,-0.4129 m -0.62433,0.004 v 0 l -0.008,0.18802 m 39.94434,0.12894 v 0 l -0.008,0.18802 m -0.30849,0.12893 v 0 l -0.008,0.18799 m -0.62546,0.12897 v 0 l -0.008,0.18799 m -23.86194,-0.10285 v 0 l 0.18799,0.008 m -13.40096,0.16436 v 0 l -0.32429,-0.26196 -0.10787,0.42175 0.73349,0.73352 0.33354,-0.004 -0.008,-0.25528 m -0.32364,-9.89975 v 0 l 0.008,-0.18799 m 0.6351,10.45252 v 0 l -0.0123,0.20813 0.42237,-0.10516 m 0.31324,0.3237 v 0 l -0.18798,-0.008 m 0.32081,0.31156 v 0 l 0.18799,0.008 m -0.7229,-0.0936 v 0 l -0.008,0.18802 m 1.27631,0.12894 v 0 l -0.008,0.18799 m 0.41053,0.22796 v 0 l -0.18801,-0.008 m 1.05371,0.86032 v 0 l -0.008,0.18799 m -1.35833,-0.089 v 0 l 0.18799,-0.008 m 3.39743,1.49423 v 0 l -0.008,0.18796 m 19.33826,0.11819 v 0 l -0.0123,0.20813 0.42236,-0.10513 m -19.10591,0.22473 v 0 l -0.008,0.18799 m 0.64965,0.11676 v 0 l -0.42722,0.10156 0.4043,0.42792 0.33356,-0.004 -0.008,-0.25477 m 34.23778,0.37503 v 0 l -0.008,0.18802 m -33.58832,-0.18704 v 0 l -0.11372,0.41577 0.43155,0.0968 -0.008,-0.25449 m 0.64679,0.36636 v 0 l -0.42644,0.0996 0.42128,0.10538 m 0.63907,0.112 v 0 l -0.42645,0.0996 0.42129,0.10534 m 27.79198,0.83951 v 0 l 0.18799,0.009 m -0.32082,0.32232 v 0 l -0.18802,-0.008 m -1.48187,0.54333 v 0 l -0.008,0.18799 m -23.43867,-0.20016 v 0 l -0.42722,0.10156 0.73157,0.73184 0.10663,-0.4209 m 21.76831,0.23359 v 0 l -0.008,0.18798 m -21.53536,0.12268 v 0 l -0.13173,0.29941 0.91671,0.75006 0.2547,0.008 -0.11203,-0.48565 m 16.4958,0.70263 v 0 l -0.008,0.18799 m -2.84413,2.34763 v 0 l -0.008,0.18799 m -7.9138,1.39706 v 0 l -0.16629,0.72589 0.15784,0.72955 0.15777,-0.72979 m -1.33354,-130.26004 v 0 l -0.18802,-0.009 m 1.37067,132.07822 v 0 l -0.008,0.18802 m 0.008,0.76285 v 0 l -0.008,0.18798 m 0.01,2.03095 v 0 l -0.11367,0.41519 0.10534,0.0893 0.10515,-0.42239 m -0.19736,1.90445 v 0 l 0.18799,0.008 m 6.88394,1.17423 v 0 l -0.008,0.18799 m 0.008,2.66458 v 0 l -0.008,0.18799 m -8.56307,2.98153 v 0 l 0.008,0.18799 m 0.0906,3.06665 v 0 l -0.18797,0.008 m 1.37063,0.22339 v 0 l -0.008,0.18799 m -1.27475,6.15131 v 0 l 0.11367,0.41522 -0.10532,0.0893 -0.10516,-0.42239 m 8.02217,7.39163 v 0 l 0.008,-0.18802 m -0.0936,2.62464 v 0 l 0.18797,0.008 m -0.089,0.8573 v 0 l -0.008,0.18796 m 0.008,0.44595 v 0 l -0.008,0.18799 M 181.91429,272.44147 v 0 l -0.18797,-0.009 m 18.88811,158.78729 v 0 l -0.18797,0.008 m 0.18797,0.62549 v 0 l -0.18797,0.008 m -7.82096,1.80813 v 0 l -0.008,0.18799 m 8.03078,0.21799 v 0 l -0.213,0.0124 0.10756,-0.73908 m 0.40898,1.99064 v 0 l -0.18797,0.008 m 0.18797,1.2594 v 0 l -0.18797,0.008 m -8.76587,0.21491 v 0 l -0.42642,0.0995 0.42125,0.10541 m 8.87387,1.38828 v 0 l -0.008,0.18799 m -13.93744,0.44592 v 0 l -0.008,0.18799 M 169.55448,285.43423 v 0 l -0.18801,-0.008 m 10.01349,157.20251 v 0 l -0.18799,0.008 m 34.65059,1.49121 v 0 l -0.008,0.18795 m 0.64386,0.4462 v 0 l -0.11366,0.41522 0.10533,0.0893 0.10516,-0.4224 M 166.71312,288.59947 v 0 l -0.20813,-0.0123 0.10513,0.4224 m 9.93279,156.78277 v 0 l 0.31179,0.65522 -0.47847,0.69308 -0.0489,-0.39407 0.20331,-0.30789 -0.20338,-0.30832 0.004,-0.33329 m 12.47984,4.34076 v 0 l -0.43388,0.10987 0.53683,0.74356 0.19894,-0.002 0.10918,-0.43884 m -11.10956,-0.31516 v 0 l -0.18797,0.008 m 4.54016,0.22339 v 0 l -0.008,0.18798 m -2.51839,-0.20022 v 0 l -0.74477,0.10278 0.4034,0.42676 0.33481,-0.002 m 1.35074,0.20398 v 0 l -0.18799,0.008 m 8.34358,0.22342 v 0 l -0.008,0.18796 m 19.11066,6.55316 v 0 l -0.18797,0.008 m -1.39679,2.52717 v 0 l -0.18796,0.008 m -8.45909,2.43127 v 0 l -0.0124,0.2081 0.42241,-0.10513 m -6.42788,0.85864 v 0 l -0.008,0.18799 m 11.8208,3.38364 v 0 l -0.18797,0.008 m -3.06668,4.97766 v 0 l -0.008,0.18796"
       style="fill:#000000;fill-opacity:1;fill-rule:nonzero;stroke:none"
       transform="matrix(1.3333336,0,0,-1.3333336,0,792.00008)" />
  </g>
</svg>
